<svg width="93" height="100" xmlns="http://www.w3.org/2000/svg">
 <defs>
  <clipPath id="clip0_5_1641">
   <rect id="svg_1" x="15" y="38" fill="white" height="49" width="68"/>
  </clipPath>
  <clipPath id="clip1_5_1641">
   <rect id="svg_2" x="31" y="0" fill="white" height="39" width="35"/>
  </clipPath>
 </defs>
 <g>
  <title>background</title>
  <rect fill="none" id="canvas_background" height="102" width="95" y="-1" x="-1"/>
 </g>
 <g>
  <title>Layer 1</title>
  <circle id="svg_5" fill-opacity="0.13" fill="#46A358" r="37" cy="53" cx="37"/>
  <g id="svg_6" clip-path="url(#clip0_5_1641)">
   <path id="svg_7" fill="#727272" d="m22.2488,40.7766c16.7728,-1.7528 33.6894,0.9378 50.421,-1.4866c0.7817,-0.1147 0.4484,-1.2982 -0.3291,-1.1836c-16.6123,2.404 -33.4343,-0.2989 -50.0919,1.4416c-0.7816,0.0819 -0.7898,1.3105 0,1.2286z"/>
   <path id="svg_8" fill="#727272" d="m22.0843,39.5727c-1.6374,0.5079 -1.4317,2.6374 -0.5636,3.7677c1.4234,1.8511 4.62,1.892 6.7058,1.6954c0.7857,-0.0737 0.7898,-1.3023 0,-1.2285c-1.3494,0.1269 -2.7482,0.1146 -4.0605,-0.2703c-0.683,-0.2007 -1.4029,-0.4833 -1.7937,-1.1221c-0.2016,-0.3318 -0.5883,-1.4621 0.0411,-1.6545c0.757,-0.2376 0.432,-1.4252 -0.3291,-1.1877z"/>
   <path id="svg_9" fill="#727272" d="m69.7818,39.6751c0.868,-0.0533 1.7073,-0.2007 2.5712,-0.3154c1.37,-0.1842 2.0735,0.1843 2.3121,1.6177c0.1975,1.1917 -0.5554,1.5398 -1.6168,1.8756c-0.5019,0.1597 -1.0285,0.258 -1.5469,0.3604c-1.3864,0.2703 -2.7769,0.4054 -4.188,0.4546c-0.7899,0.0286 -0.794,1.2572 0,1.2286c2.4067,-0.086 9.166,-0.1761 8.9027,-3.9643c-0.0659,-0.946 -0.9833,-2.2524 -1.8431,-2.6783c-1.2836,-0.6388 -3.283,0.1106 -4.5953,0.1925c-0.7858,0.0491 -0.7899,1.2777 0.0041,1.2286z"/>
   <path id="svg_10" fill="#727272" d="m24.0549,44.7736c-0.1687,2.6005 -3.1308,4.0707 -4.7023,5.8562c-1.2342,1.4047 -2.2051,3.0223 -2.9086,4.7464c-1.5139,3.694 -1.8019,7.8343 -1.0326,11.7289c1.5839,7.9899 7.6479,14.5833 15.2217,17.4131c0.7447,0.2785 1.0656,-0.9091 0.3292,-1.1835c-7.866,-2.9404 -13.9794,-10.3078 -14.6623,-18.7564c-0.325,-4.0134 0.5266,-8.1905 2.777,-11.5691c1.8677,-2.8012 5.9776,-4.5949 6.2121,-8.2356c0.0493,-0.7863 -1.1849,-0.7863 -1.2342,0z"/>
   <path id="svg_11" fill="#727272" d="m70.8226,44.2495c0,3.2312 2.3574,5.2584 4.7558,7.0644c2.0611,1.548 3.6573,3.0551 4.6735,5.4836c0.8845,2.109 1.3741,4.386 1.4851,6.6671c0.4032,8.3912 -4.4924,16.1804 -12.0169,19.8457c-0.7117,0.3481 -0.0905,1.4088 0.6212,1.0607c6.9897,-3.4032 11.9182,-10.3201 12.5764,-18.0684c0.3333,-3.9192 -0.3496,-8.2356 -2.349,-11.6715c-2.201,-3.7882 -8.5119,-5.5246 -8.516,-10.3816c0.0041,-0.7904 -1.2301,-0.7904 -1.2301,0z"/>
   <path id="svg_12" fill="#727272" d="m30.267,83.6172c-0.7981,1.7651 0.6335,3.2886 2.4108,3.3705c1.9294,0.0942 3.9658,-0.3522 5.8994,-0.4341c2.2421,-0.0983 4.4843,-0.1024 6.7264,-0.0697c8.3678,0.127 16.7315,0.7618 25.0623,-0.3685c0.2839,-0.0369 0.4279,-0.3481 0.4526,-0.5939c0.0658,-0.688 0.0082,-1.1958 -0.1934,-1.8428c-0.2345,-0.7536 -1.4234,-0.43 -1.1889,0.3276c0.2098,0.4955 0.2592,1.0033 0.1481,1.5152c0.1522,-0.1965 0.3003,-0.3931 0.4525,-0.5938c-6.496,0.8805 -13.0495,0.6594 -19.5825,0.4546c-3.1678,-0.0983 -6.3397,-0.1884 -9.5074,-0.1351c-1.4482,0.0245 -2.8963,0.0819 -4.3444,0.1802c-0.7899,0.0532 -1.5757,0.1269 -2.3614,0.2047c-0.5801,0.0574 -3.7972,0.5529 -2.9127,-1.4047c0.325,-0.7084 -0.7364,-1.3309 -1.0614,-0.6102z"/>
   <path id="svg_13" fill="#727272" d="m22.0802,51.2237c-5.0273,6.1552 -5.4182,14.7471 -0.9051,21.2996c0.2221,0.3235 0.757,0.0163 0.5348,-0.3113c-4.3485,-6.3108 -4.0482,-14.6078 0.8105,-20.5583c0.2427,-0.2989 -0.1893,-0.7371 -0.4402,-0.43z"/>
   <path id="svg_14" fill="#727272" d="m22.4134,74.8043c0.4032,0.5815 0.8639,1.118 1.3782,1.6053c0.288,0.2703 0.724,-0.1597 0.4361,-0.4341c-0.4773,-0.4504 -0.9051,-0.9419 -1.2836,-1.4784c-0.2222,-0.3235 -0.757,-0.0204 -0.5307,0.3072z"/>
   <path id="svg_15" fill="#727272" d="m25.865,78.3387c0.3991,0 0.3991,-0.6143 0,-0.6143c-0.399,0 -0.399,0.6143 0,0.6143z"/>
   <path id="svg_16" fill="#727272" d="m69.6296,44.2822c-0.3168,1.1795 -0.5883,2.3671 -0.1234,3.5465c0.4319,1.0935 1.3082,2.0804 2.0528,2.9855c1.7855,2.1623 5.4387,4.3451 5.6115,7.3592c0.0206,0.3932 0.6377,0.3973 0.6171,0c-0.1275,-2.2565 -1.7978,-3.7021 -3.3364,-5.1682c-0.9915,-0.946 -1.9254,-1.9494 -2.7811,-3.0223c-0.5759,-0.7249 -1.2259,-1.4907 -1.5592,-2.363c-0.4073,-1.0607 -0.1728,-2.105 0.1111,-3.1698c0.1028,-0.3849 -0.4937,-0.5487 -0.5924,-0.1679z"/>
   <path id="svg_17" fill="#727272" d="m77.4379,59.5987c0.0864,0.7863 0.1728,1.5726 0.2592,2.3589c0.0411,0.3891 0.6623,0.3932 0.6171,0c-0.0864,-0.7863 -0.1728,-1.5726 -0.2592,-2.3589c-0.0411,-0.389 -0.6582,-0.3931 -0.6171,0z"/>
   <path id="svg_18" fill="#727272" d="m77.4955,63.5752c0.0453,0.2294 0.0082,0.4464 -0.0781,0.6594c-0.0618,0.1556 0.0699,0.3358 0.2139,0.3767c0.1769,0.0492 0.3168,-0.0614 0.3785,-0.2129c0.1275,-0.3195 0.144,-0.6512 0.0781,-0.987c-0.0699,-0.385 -0.6664,-0.2211 -0.5924,0.1638z"/>
   <path id="svg_19" fill="#727272" d="m50.7423,59.0825c1.4728,-2.7848 4.2456,-4.6072 7.4668,-4.4475c3.8343,0.1884 7.866,3.5097 5.1796,7.433c-1.5757,2.2974 -4.4061,3.784 -6.4919,5.5941c-2.3162,2.0108 -4.4349,4.2263 -6.389,6.5934c-0.5019,0.6061 0.3661,1.4784 0.8721,0.8682c2.9786,-3.6079 6.3479,-6.6589 10.0505,-9.5092c2.4725,-1.9084 5.2083,-4.8038 3.7067,-8.1578c-1.2424,-2.7766 -4.6735,-4.1403 -7.5656,-4.0584c-3.4064,0.0982 -6.3273,2.0967 -7.8989,5.0617c-0.3661,0.7003 0.6994,1.3228 1.0697,0.6225z"/>
   <path id="svg_20" fill="#727272" d="m50.4502,58.1285c-2.6371,-2.9527 -5.9283,-5.9955 -10.1986,-5.7744c-3.1677,0.1639 -5.8953,2.5555 -6.352,5.7048c-0.5636,3.8372 2.3162,7.2036 5.122,9.4273c3.4475,2.7315 8.6475,3.6776 11.227,7.3797c0.4484,0.647 1.5181,0.0327 1.0655,-0.6184c-1.6085,-2.3097 -3.9494,-3.4974 -6.4342,-4.6932c-3.1596,-1.5193 -6.2739,-3.3991 -8.3062,-6.3313c-2.2668,-3.2639 -1.8924,-8.2561 2.5013,-9.4519c4.2991,-1.1671 7.9194,2.3384 10.4989,5.2256c0.5307,0.5938 1.4029,-0.2785 0.8763,-0.8682z"/>
  </g>
  <g id="svg_21" clip-path="url(#clip1_5_1641)">
   <path id="svg_22" fill="#46A358" d="m46.4719,12.629c-1.1889,2.153 -3.0031,3.878 -5.3315,4.771c-0.9091,0.3507 -2.1062,0.3303 -1.9869,-0.9134c0.074,-0.7748 0.9132,-1.4476 1.5221,-1.8106c1.0367,-0.6198 2.3654,-0.8237 3.4802,-1.3049c0.7241,-0.314 0.0988,-1.3701 -0.6211,-1.0561c-1.9911,0.8604 -4.1714,1.0643 -5.3027,3.1521c-0.6047,1.1173 -0.8022,2.671 0.5595,3.3071c1.4768,0.6892 3.509,-0.4241 4.7349,-1.207c1.7031,-1.0847 3.0401,-2.565 4.0068,-4.3225c0.3867,-0.6891 -0.6787,-1.309 -1.0613,-0.6157z"/>
   <path id="svg_23" fill="#46A358" d="m43.8967,12.119c-1.4975,0.1631 -2.9825,0.1713 -4.4676,-0.106c-0.543,-0.1019 -1.0819,-0.2406 -1.6085,-0.4078c-0.4443,-0.1305 -0.8721,-0.2895 -1.2958,-0.4811c-0.6294,-0.7911 -0.5677,-1.23154 0.1933,-1.3294c2.2297,-1.70452 5.714,0.08563 7.9026,0.9134c0.7446,0.2814 1.0654,-0.90117 0.3291,-1.17846c-1.9047,-0.72177 -3.9945,-1.80646 -6.0884,-1.57403c-1.2012,0.13049 -3.9698,0.64837 -4.2907,2.14489c-0.7405,3.4662 7.5365,3.4417 9.326,3.246c0.7816,-0.0898 0.7898,-1.3131 0,-1.2275z"/>
   <path id="svg_24" fill="#46A358" d="m45.353,9.54986c-1.8718,-1.47208 -3.5338,-3.7638 -3.4433,-6.24718c0.0412,-1.10508 0.7487,-1.57403 1.7731,-1.07654c0.5635,0.27322 0.9544,0.97052 1.2629,1.49655c0.7158,1.2315 1.0161,2.63833 1.2794,4.02071c0.1481,0.7707 1.337,0.44448 1.1889,-0.32623c-0.395,-2.06336 -0.9586,-4.21236 -2.4971,-5.75376c-0.9091,-0.90935 -2.423,-1.95326 -3.4926,-0.72993c-2.5012,2.85854 0.7734,7.68256 3.0565,9.48092c0.6171,0.4852 1.4974,-0.3752 0.8722,-0.86454z"/>
   <path id="svg_25" fill="#46A358" d="m47.3852,7.75588c0.2715,-1.9655 1.1354,-5.70484 3.4144,-6.34097c2.1186,-0.5872 1.9088,2.78921 1.3164,3.90652c-0.5965,1.12547 -1.7689,2.18162 -2.6205,3.12359c-0.5265,0.58313 0.3415,1.4517 0.8721,0.86449c1.2218,-1.35382 3.0484,-2.90746 3.3116,-4.81179c0.2057,-1.47616 0.0946,-3.70671 -1.5467,-4.35916c-1.4975,-0.59536 -2.9784,0.75847 -3.83,1.82277c-1.2547,1.56588 -1.8388,3.5069 -2.1103,5.46017c-0.107,0.77885 1.0819,1.11323 1.193,0.33438z"/>
   <path id="svg_26" fill="#46A358" d="m50.454,9.46471c1.4357,-1.19071 4.1014,-2.01851 5.8539,-0.94605c2.2708,1.39461 -0.9462,2.23054 -2.0075,2.29984c-1.1354,0.0775 -2.2708,0.0082 -3.398,-0.1223c-0.7857,-0.0897 -0.7816,1.1336 0,1.2233c1.843,0.2121 4.3318,0.4853 6.0473,-0.42c1.0654,-0.5627 1.8306,-1.92469 1.1765,-3.07055c-0.7323,-1.2845 -2.7933,-1.59441 -4.1302,-1.55771c-1.6579,0.04893 -3.1512,0.68506 -4.41,1.72898c-0.613,0.50565 0.2633,1.37014 0.868,0.86449z"/>
   <path id="svg_27" fill="#46A358" d="m50.5857,11.8786c1.2711,0.4649 2.5341,1.1663 3.2581,2.3488c0.905,1.4843 0.9256,4.2165 -1.7072,3.7067c-2.3161,-0.4485 -3.9904,-2.887 -4.4635,-5.0034c-0.1728,-0.7666 -1.3616,-0.4445 -1.1889,0.3262c0.4196,1.8839 1.4687,3.5477 3.0401,4.7017c1.2342,0.9093 3.4021,1.994 4.8543,0.9624c1.4933,-1.0603 1.4933,-3.2541 0.8186,-4.7629c-0.7981,-1.7779 -2.497,-2.8096 -4.2742,-3.462c-0.7569,-0.2692 -1.0778,0.9134 -0.3373,1.1825z"/>
   <path id="svg_28" fill="#46A358" d="m38.1045,15.2467c-3.6037,2.1531 -6.2612,4.5509 -6.8906,8.8652c-0.687,4.6853 0.4114,9.5828 1.4151,14.1458c0.1687,0.7707 1.3576,0.4445 1.1889,-0.3262c-0.8886,-4.037 -1.7977,-8.2208 -1.5221,-12.3761c0.3003,-4.5304 2.6699,-7.0056 6.4257,-9.2484c0.6829,-0.4078 0.0659,-1.468 -0.617,-1.0603z"/>
   <path id="svg_29" fill="#46A358" d="m54.0083,13.8645c5.0394,0.3914 8.606,4.404 9.9595,8.9997c1.4727,5.0034 0.65,10.2719 -0.1522,15.3121c-0.1234,0.7707 1.0654,1.101 1.1889,0.3262c0.9379,-5.9128 1.8799,-12.1926 -0.5431,-17.8934c-1.8347,-4.3183 -5.6441,-7.5928 -10.4531,-7.968c-0.7939,-0.0611 -0.7898,1.1622 0,1.2234z"/>
   <path id="svg_30" fill="#46A358" d="m39.3263,17.7833c-6.0267,4.3469 -4.0727,14.1744 -2.855,20.2829c0.1522,0.7707 1.3452,0.4445 1.1889,-0.3262c-0.6377,-3.197 -1.23,-6.4307 -1.1683,-9.701c0.0617,-3.1807 0.6664,-7.1892 3.4555,-9.1995c0.6377,-0.4608 0.0247,-1.5211 -0.6211,-1.0562z"/>
   <path id="svg_31" fill="#46A358" d="m46.0934,13.8278c-2.242,3.4213 -3.69,7.2462 -4.2166,11.2995c-0.2756,2.1246 -0.2962,4.2777 -0.0411,6.4063c0.2756,2.3243 1.0284,4.5589 1.3081,6.8833c0.0905,0.7707 1.3288,0.7829 1.2342,0c-0.4854,-4.0574 -1.736,-7.7927 -1.4069,-11.9439c0.3414,-4.3102 1.8224,-8.4125 4.1919,-12.0295c0.4278,-0.6606 -0.6376,-1.2722 -1.0696,-0.6157z"/>
   <path id="svg_32" fill="#46A358" d="m49.1088,17.6079c1.8389,3.0094 2.2256,6.4143 2.5464,9.8519c0.3333,3.5762 0.6048,7.1565 0.8351,10.7409c0.0494,0.7829 1.2835,0.787 1.2342,0c-0.2592,-4.0574 -0.5513,-8.1148 -0.9709,-12.16c-0.3291,-3.1766 -0.8844,-6.2879 -2.5793,-9.0527c-0.4114,-0.6687 -1.481,-0.0571 -1.0655,0.6199z"/>
   <path id="svg_33" fill="#46A358" d="m54.7241,18.1789c4.5951,5.7293 4.7473,13.0448 4.5828,20.026c-0.0165,0.787 1.2176,0.787 1.2341,0c0.1728,-7.3645 -0.1234,-14.8758 -4.9448,-20.8905c-0.4936,-0.6158 -1.3616,0.2569 -0.8721,0.8645z"/>
   <path id="svg_34" fill="#46A358" d="m46.9532,19.6712c-0.0699,0.2732 -0.1358,0.5424 -0.2057,0.8156c-0.0946,0.3833 0.4978,0.5464 0.5965,0.1631c0.0699,-0.2732 0.1358,-0.5424 0.2057,-0.8156c0.0946,-0.3792 -0.4978,-0.5423 -0.5965,-0.1631z"/>
   <path id="svg_35" fill="#46A358" d="m48.286,21.7957c0,0.3058 0,0.6117 0,0.9175c0,0.3955 0.6171,0.3955 0.6171,0c0,-0.3058 0,-0.6117 0,-0.9175c0,-0.3956 -0.6171,-0.3956 -0.6171,0z"/>
   <path id="svg_36" fill="#46A358" d="m45.3077,23.7328c-0.0329,0.4404 -0.0699,0.8849 -0.1028,1.3253c-0.0288,0.3915 0.5882,0.3915 0.617,0c0.0329,-0.4404 0.07,-0.8849 0.1029,-1.3253c0.0288,-0.3915 -0.5883,-0.3915 -0.6171,0z"/>
   <path id="svg_37" fill="#46A358" d="m49.3145,25.8733c0,0.4078 0,0.8156 0,1.2234c0,0.3955 0.6171,0.3955 0.6171,0c0,-0.4078 0,-0.8156 0,-1.2234c0,-0.3955 -0.6171,-0.3955 -0.6171,0z"/>
   <path id="svg_38" fill="#46A358" d="m46.9491,28.1162c0,0.4404 0,0.8849 0,1.3253c0,0.3956 0.6171,0.3956 0.6171,0c0,-0.4404 0,-0.8849 0,-1.3253c0,-0.3955 -0.6171,-0.3955 -0.6171,0z"/>
   <path id="svg_39" fill="#46A358" d="m45.6121,32.6018c0,0.6117 0,1.2234 0,1.835c0,0.3956 0.6171,0.3956 0.6171,0c0,-0.6116 0,-1.2233 0,-1.835c0,-0.3955 -0.6171,-0.3955 -0.6171,0z"/>
   <path id="svg_40" fill="#46A358" d="m43.7815,28.6014c0.0699,0.4078 0.144,0.8156 0.2139,1.2233c0.0658,0.3874 0.6623,0.2243 0.5965,-0.1631c-0.0699,-0.4077 -0.144,-0.8155 -0.2139,-1.2233c-0.07,-0.3833 -0.6665,-0.2202 -0.5965,0.1631z"/>
   <path id="svg_41" fill="#46A358" d="m48.5,34.6408c0.0329,0.4078 0.0699,0.8156 0.1028,1.2234c0.0329,0.3914 0.65,0.3914 0.6171,0c-0.0329,-0.4078 -0.0699,-0.8156 -0.1029,-1.2234c-0.0329,-0.3914 -0.6541,-0.3955 -0.617,0z"/>
   <path id="svg_42" fill="#46A358" d="m50.3471,30.0532c0.0329,0.4078 0.0699,0.8155 0.1028,1.2233c0.0329,0.3874 0.65,0.3915 0.6171,0c-0.0329,-0.4078 -0.07,-0.8155 -0.1029,-1.2233c-0.0329,-0.3915 -0.6499,-0.3956 -0.617,0z"/>
   <path id="svg_43" fill="#46A358" d="m57.431,16.4008c0.4772,0.4119 0.9544,0.8237 1.4316,1.2315c0.3003,0.2569 0.7363,-0.1753 0.436,-0.4322c-0.4772,-0.4119 -0.9544,-0.8237 -1.4316,-1.2315c-0.2962,-0.2569 -0.7363,0.1712 -0.436,0.4322z"/>
   <path id="svg_44" fill="#46A358" d="m57.6902,19.8058c0.2674,0.4771 0.5389,0.9582 0.8063,1.4353c0.1933,0.3426 0.7281,0.0368 0.5347,-0.3099c-0.2674,-0.4771 -0.5389,-0.9582 -0.8063,-1.4353c-0.1974,-0.3426 -0.7281,-0.0327 -0.5347,0.3099z"/>
   <path id="svg_45" fill="#46A358" d="m60.1625,20.0055c0.3045,0.4118 0.6089,0.8237 0.9133,1.2314c0.2304,0.314 0.7693,0.0082 0.5348,-0.3099c-0.3044,-0.4118 -0.6089,-0.8237 -0.9133,-1.2315c-0.2345,-0.3099 -0.7693,-0.0081 -0.5348,0.31z"/>
   <path id="svg_46" fill="#46A358" d="m61.6846,25.3393c0.1029,0.7136 0.2098,1.4272 0.3127,2.1408c0.0576,0.3874 0.65,0.2243 0.5965,-0.1631c-0.1029,-0.7136 -0.2098,-1.4272 -0.3127,-2.1409c-0.0617,-0.3873 -0.6541,-0.2202 -0.5965,0.1632z"/>
   <path id="svg_47" fill="#46A358" d="m59.6113,23.5083c0.1028,0.3385 0.2057,0.681 0.3085,1.0195c0.1152,0.3751 0.7076,0.2161 0.5965,-0.1631c-0.1028,-0.3385 -0.2057,-0.681 -0.3085,-1.0195c-0.1152,-0.3751 -0.7117,-0.2161 -0.5965,0.1631z"/>
   <path id="svg_48" fill="#46A358" d="m62.8817,31.1746c0.0453,0.4853 0.0371,0.9706 -0.0411,1.4517c-0.0617,0.3833 0.5307,0.5505 0.5965,0.1631c0.0864,-0.5382 0.1152,-1.0724 0.0658,-1.6148c-0.0411,-0.3873 -0.6582,-0.3914 -0.6212,0z"/>
   <path id="svg_49" fill="#46A358" d="m61.4501,33.1116c0,0.3752 0,0.7462 0,1.1214c0,0.3955 0.6171,0.3955 0.6171,0c0,-0.3752 0,-0.7462 0,-1.1214c0,-0.3955 -0.6171,-0.3955 -0.6171,0z"/>
   <path id="svg_50" fill="#46A358" d="m62.0878,22.8928c0.1687,0.4078 0.3414,0.8156 0.5101,1.2234c0.0658,0.1549 0.2057,0.2609 0.3785,0.212c0.144,-0.0367 0.2797,-0.2243 0.2139,-0.3752c-0.1687,-0.4077 -0.3415,-0.8155 -0.5101,-1.2233c-0.0658,-0.155 -0.2057,-0.261 -0.3785,-0.212c-0.144,0.0367 -0.2756,0.2242 -0.2139,0.3751z"/>
   <path id="svg_51" fill="#46A358" d="m60.9359,29.9512c0,0.2365 0,0.4771 0,0.7136c0,0.3956 0.6171,0.3956 0.6171,0c0,-0.2365 0,-0.4771 0,-0.7136c0,-0.3955 -0.6171,-0.3955 -0.6171,0z"/>
   <path id="svg_52" fill="#46A358" d="m62.1701,36.7817c-0.0165,0.2895 -0.0864,0.5668 -0.1934,0.836c-0.0617,0.1549 0.0699,0.3343 0.2139,0.3751c0.1769,0.0489 0.3168,-0.0612 0.3785,-0.212c0.1316,-0.3222 0.1975,-0.6525 0.218,-0.9991c0.0247,-0.3955 -0.5924,-0.3915 -0.617,0z"/>
   <path id="svg_53" fill="#46A358" d="m36.2903,18.8841c-0.2098,0.3018 -0.4196,0.6035 -0.6336,0.9053c-0.2262,0.3262 0.3086,0.632 0.5348,0.3099c0.2098,-0.3018 0.4196,-0.6035 0.6336,-0.9053c0.2221,-0.3262 -0.3127,-0.6321 -0.5348,-0.3099z"/>
   <path id="svg_54" fill="#46A358" d="m34.5296,23.3453c-0.0782,0.3711 -0.1522,0.7421 -0.2304,1.1173c-0.0781,0.3833 0.5143,0.5505 0.5965,0.1631c0.0782,-0.3711 0.1522,-0.7421 0.2304,-1.1173c0.0782,-0.3833 -0.5183,-0.5464 -0.5965,-0.1631z"/>
   <path id="svg_55" fill="#46A358" d="m34.3321,21.1228c-0.325,0.4282 -0.5677,0.9012 -0.7322,1.4109c-0.1234,0.3751 0.4731,0.5342 0.5965,0.1631c0.1522,-0.4608 0.3784,-0.8767 0.6705,-1.2641c0.2386,-0.3181 -0.3003,-0.6198 -0.5348,-0.3099z"/>
   <path id="svg_56" fill="#46A358" d="m33.0774,25.1803c-0.074,0.5097 -0.1522,1.0154 -0.2262,1.5251c-0.0576,0.3833 0.5389,0.5505 0.5965,0.1631c0.074,-0.5097 0.1522,-1.0154 0.2262,-1.5251c0.0576,-0.3874 -0.5389,-0.5546 -0.5965,-0.1631z"/>
   <path id="svg_57" fill="#46A358" d="m33.6945,28.1163c-0.0535,0.5097 -0.0206,1.0113 0.0782,1.5129c0.074,0.3873 0.6705,0.2242 0.5965,-0.1632c-0.0864,-0.4485 -0.1029,-0.8971 -0.0535,-1.3497c0.0329,-0.3915 -0.5842,-0.3874 -0.6212,0z"/>
   <path id="svg_58" fill="#46A358" d="m34.2005,31.9902c0.0329,0.3058 0.0699,0.6116 0.1028,0.9175c0.0165,0.1631 0.1276,0.3058 0.3086,0.3058c0.1522,0 0.3291,-0.1386 0.3085,-0.3058c-0.0329,-0.3059 -0.0699,-0.6117 -0.1028,-0.9175c-0.0165,-0.1632 -0.1276,-0.3059 -0.3086,-0.3059c-0.1522,0 -0.325,0.1387 -0.3085,0.3059z"/>
   <path id="svg_59" fill="#46A358" d="m33.2008,34.2901c0.2386,0.3874 0.4114,0.7951 0.5184,1.2396c0.0946,0.3833 0.687,0.2202 0.5965,-0.1631c-0.1193,-0.4893 -0.3168,-0.9542 -0.5801,-1.3864c-0.2098,-0.3344 -0.7404,-0.0245 -0.5348,0.3099z"/>
   <path id="svg_60" fill="#46A358" d="m34.5173,36.8632c0.0699,0.1713 0.1357,0.3385 0.2056,0.5098c0.0617,0.1508 0.2057,0.2609 0.3785,0.212c0.1481,-0.0408 0.2797,-0.2202 0.2139,-0.3751c-0.0699,-0.1713 -0.1357,-0.3385 -0.2057,-0.5098c-0.0617,-0.1509 -0.2057,-0.261 -0.3784,-0.212c-0.144,0.0367 -0.2757,0.2202 -0.2139,0.3751z"/>
  </g>
 </g>
</svg>