<svg width="91.00000000000001" height="95" xmlns="http://www.w3.org/2000/svg">
 <defs>
  <clipPath id="clip0_10_730">
   <rect id="svg_1" x="31" y="0" fill="white" height="49" width="44"/>
  </clipPath>
  <clipPath id="clip1_10_730">
   <rect id="svg_2" x="7" y="45" fill="white" height="40" width="83"/>
  </clipPath>
 </defs>
 <g>
  <title>background</title>
  <rect fill="none" id="canvas_background" height="97" width="93" y="-1" x="-1"/>
 </g>
 <g>
  <title>Layer 1</title>
  <circle id="svg_5" fill-opacity="0.13" fill="#46A358" r="37" cy="52" cx="37"/>
  <g id="svg_6" clip-path="url(#clip0_10_730)">
   <path id="svg_7" fill="#46A358" d="m51.3006,44.0269c0.0199,0.4843 0.1589,0.9423 0.417,1.3545c0.2217,0.3599 0.7877,0.0164 0.5659,-0.3402c-0.1952,-0.3174 -0.3045,-0.6544 -0.3177,-1.0241c-0.0198,-0.422 -0.6817,-0.4089 -0.6652,0.0098z"/>
   <path id="svg_8" fill="#46A358" d="m59.8093,43.9844c-0.0331,0.1832 -0.0695,0.3632 -0.1026,0.5464c-0.0331,0.1734 0.0596,0.3533 0.2383,0.3991c0.1655,0.0425 0.3706,-0.0621 0.4037,-0.2355c0.0331,-0.1833 0.0695,-0.3632 0.1026,-0.5464c0.0331,-0.1734 -0.0595,-0.3534 -0.2382,-0.3992c-0.1655,-0.0425 -0.3707,0.0622 -0.4038,0.2356z"/>
   <path id="svg_9" fill="#46A358" d="m64.3401,44.6355c0.4269,-0.0098 0.4137,-0.6641 -0.0133,-0.6543c-0.4269,0.0098 -0.4137,0.6641 0.0133,0.6543z"/>
   <path id="svg_10" fill="#46A358" d="m39.4823,45.7936c0.4269,-0.0098 0.4137,-0.6641 -0.0133,-0.6543c-0.4269,0.0098 -0.4136,0.6641 0.0133,0.6543z"/>
   <path id="svg_11" fill="#46A358" d="m51.5885,4.38731c-2.555,7.44959 -3.9483,15.25259 -4.1005,23.12099c-0.0762,3.9555 0.1588,7.9142 0.7049,11.8337c0.2515,1.8059 0.5692,3.6054 0.9531,5.3884c0.3012,1.3938 0.4567,2.9871 1.5026,4.0504c0.4467,0.4547 1.1318,-0.2552 0.6883,-0.7067c-1.1285,-1.1484 -1.2443,-3.576 -1.5356,-5.0777c-0.3673,-1.8975 -0.6586,-3.8115 -0.8737,-5.7352c-0.4071,-3.6381 -0.5428,-7.3024 -0.4137,-10.9602c0.2615,-7.3809 1.6415,-14.68 4.0376,-21.67159c0.2052,-0.59872 -0.7612,-0.83755 -0.963,-0.2421z"/>
   <path id="svg_12" fill="#46A358" d="m55.4407,4.52135c1.3371,7.44305 1.3702,15.04975 1.6382,22.58445c0.1258,3.5399 0.3409,7.0897 0.2681,10.633c-0.0761,3.6773 -0.8009,7.1355 -1.7772,10.6689c-0.1688,0.6118 0.7943,0.8506 0.9631,0.2421c0.9167,-3.3077 1.6448,-6.5728 1.7838,-10.0146c0.1555,-3.8442 -0.1059,-7.7081 -0.2416,-11.5458c-0.2714,-7.6263 -0.3276,-15.3115 -1.6812,-22.84614c-0.1125,-0.62162 -1.0657,-0.34026 -0.9532,0.27809z"/>
   <path id="svg_13" fill="#46A358" d="m62.6291,17.3104c0.4534,10.1847 0.8638,20.4938 -1.6515,30.4692c-0.1555,0.6151 0.8075,0.8539 0.9631,0.2421c2.5351,-10.0604 2.1412,-20.4611 1.6812,-30.7309c-0.0298,-0.6315 -1.0226,-0.6151 -0.9928,0.0196z"/>
   <path id="svg_14" fill="#46A358" d="m59.8226,17.4608c-1.4065,1.626 -2.3464,3.517 -2.7601,5.6207c-0.1225,0.6184 0.8406,0.8638 0.9631,0.2421c0.3806,-1.9433 1.2112,-3.6773 2.5119,-5.1823c0.4137,-0.4809 -0.2979,-1.1615 -0.7149,-0.6805z"/>
   <path id="svg_15" fill="#46A358" d="m69.6055,23.7163c-0.0231,7.3744 -1.0226,14.68 -2.9819,21.796c-0.1687,0.6118 0.7943,0.8506 0.9631,0.2421c1.9791,-7.1977 2.9885,-14.5983 3.0117,-22.0577c0,-0.6315 -0.9929,-0.6118 -0.9929,0.0196z"/>
   <path id="svg_16" fill="#46A358" d="m67.719,21.5211c-2.5681,2.9413 -3.8291,6.563 -4.7359,10.2895c-0.1489,0.6151 0.8142,0.8572 0.9631,0.2421c0.8671,-3.5498 2.0387,-7.0407 4.491,-9.851c0.4137,-0.4777 -0.3012,-1.1615 -0.7182,-0.6806z"/>
   <path id="svg_17" fill="#46A358" d="m43.7549,10.4171c1.7672,4.1158 3.0513,8.382 3.8456,12.7824c0.1125,0.6217 1.0624,0.337 0.9532,-0.2813c-0.7943,-4.4004 -2.0817,-8.6667 -3.8457,-12.7825c-0.2482,-0.57253 -1.2013,-0.30098 -0.9531,0.2814z"/>
   <path id="svg_18" fill="#46A358" d="m41.9148,10.7735c-0.5196,6.2457 -1.0293,12.5699 0.0231,18.7926c1.1021,6.491 3.8093,12.825 5.891,19.0575c0.1985,0.5988 1.1517,0.3207 0.9531,-0.2813c-2.0155,-6.0428 -4.6201,-12.187 -5.785,-18.4556c-1.1716,-6.3111 -0.6189,-12.7857 -0.0894,-19.1328c0.053,-0.6281 -0.9399,-0.6052 -0.9928,0.0196z"/>
   <path id="svg_19" fill="#46A358" d="m35.5969,25.8625c3.3128,3.0492 5.9968,6.6154 8.009,10.6232c0.2846,0.566 1.1286,0.0491 0.8473,-0.5137c-2.0486,-4.0798 -4.7955,-7.7146 -8.1679,-10.8194c-0.4667,-0.4286 -1.155,0.2781 -0.6884,0.7099z"/>
   <path id="svg_20" fill="#46A358" d="m33.3233,27.1222c2.5649,7.5772 6.0167,14.8142 10.3025,21.5865c0.3376,0.5366 1.1881,0.0262 0.8473,-0.5136c-4.2428,-6.7037 -7.6583,-13.8556 -10.1967,-21.3543c-0.2018,-0.5954 -1.155,-0.3206 -0.9531,0.2814z"/>
   <path id="svg_21" fill="#46A358" d="m39.0686,46.7621c-1.4628,-2.5847 -3.6074,-4.7342 -6.2749,-6.1017c-0.5427,-0.2781 -1.0623,-0.2062 -0.0099,-0.3108c0.3839,-0.0393 0.7811,-0.0557 1.165,-0.0491c1.251,0.0131 2.3828,0.2355 3.4584,0.9062c1.251,0.7787 2.3431,1.8976 3.4618,2.8497c0.4831,0.4122 1.1715,-0.2945 0.6883,-0.7067c-1.4164,-1.2105 -2.8197,-2.7221 -4.5572,-3.4745c-0.9697,-0.4221 -2.0188,-0.5464 -3.0712,-0.5497c-0.6685,-0.0033 -2.0585,-0.1276 -2.6178,0.4352c-1.0922,1.0927 0.9995,1.7372 1.6514,2.12c2.2373,1.3021 3.9979,3.1735 5.2588,5.4048c0.3111,0.5431 1.1584,0.0295 0.8473,-0.5234z"/>
   <path id="svg_22" fill="#46A358" d="m69.2811,38.7923c0.9697,-2.1364 3.2235,-2.8071 5.3681,-3.2521c0.3144,-0.0654 0.4401,-0.4776 0.2813,-0.7263c-1.165,-1.819 -3.2864,-2.0055 -5.2754,-1.8256c-0.6321,0.0556 -0.6189,1.0371 0.0199,0.9815c1.6051,-0.1439 3.4419,-0.1538 4.4082,1.3578c0.0927,-0.2421 0.1887,-0.4842 0.2814,-0.7263c-2.3895,0.494 -4.8816,1.3479 -5.9506,3.7133c-0.2614,0.5726 0.6057,1.0535 0.8671,0.4777z"/>
   <path id="svg_23" fill="#46A358" d="m35.4314,24.9138c-0.4369,0.5693 -0.9267,1.2792 -1.6514,1.5083c-0.7149,0.2257 -1.4794,-0.0982 -1.4231,-0.9521c0.043,-0.6674 0.6221,-1.1549 1.1848,-1.433c0.6553,-0.3239 2.4523,-0.4777 1.9757,0.7656c-0.225,0.5922 0.7381,0.8244 0.9631,0.2421c0.46,-1.2007 -0.6453,-2.2509 -1.8169,-2.2738c-1.2311,-0.0229 -2.6642,0.7852 -3.1275,1.9401c-0.4335,1.0698 0.0199,2.4079 1.2245,2.7122c1.4728,0.3697 2.5881,-0.7852 3.389,-1.8256c0.3806,-0.5038 -0.331,-1.1876 -0.7182,-0.6838z"/>
   <path id="svg_24" fill="#46A358" d="m43.9965,9.68083c-0.6189,0.11451 -1.5158,0.51367 -2.1347,0.18649c-0.6189,-0.33044 -0.5063,-1.15163 -0.1489,-1.62603c0.374,-0.49402 0.9631,-0.67396 1.5588,-0.51038c0.4832,0.13414 1.989,1.38392 0.9399,1.81579c-0.5825,0.23883 -0.3078,1.1843 0.2846,0.9422c1.2411,-0.51034 1.198,-1.93025 0.4004,-2.84305c-0.8042,-0.92262 -2.2438,-1.27269 -3.3194,-0.60199c-0.9399,0.5889 -1.4628,1.8714 -0.9531,2.89871c0.7214,1.45913 2.4093,0.90953 3.657,0.68053c0.6255,-0.1178 0.3375,-1.06005 -0.2846,-0.94227z"/>
   <path id="svg_25" fill="#46A358" d="m55.7916,3.6937c-0.8605,0.2192 -1.8633,0.47766 -2.7502,0.265c-1.2477,-0.29445 -1.294,-1.70781 -0.417,-2.44067c0.7016,-0.58563 1.7772,-0.65107 2.6277,-0.39588c0.5362,0.16032 1.165,0.50712 1.3106,1.08947c0.139,0.54638 -0.1291,1.0862 -0.6851,1.22034c-0.6188,0.1505 -0.3375,1.09274 0.2847,0.94225c1.4793,-0.35989 1.8036,-2.18222 0.8935,-3.25533c-1.0259,-1.20725 -3.0844,-1.41337 -4.4645,-0.74594c-1.2973,0.62816 -2.0883,2.31635 -1.2245,3.60539c0.9994,1.49516 3.2532,1.02404 4.7061,0.65107c0.6189,-0.15377 0.3376,-1.09602 -0.2813,-0.9357z"/>
   <path id="svg_26" fill="#46A358" d="m62.8707,13.3419c-1.4264,-0.2519 -2.9885,0.157 -3.6405,1.554c-0.5295,1.132 -0.0298,2.601 1.2014,3.0263c1.241,0.4286 3.1241,-0.1014 3.8125,-1.2399c0.6586,-1.096 0.182,-2.4865 -0.8571,-3.1409c-0.5395,-0.3402 -1.0194,0.5202 -0.4832,0.8572c0.6685,0.4188 0.8869,1.3709 0.3408,1.9827c-0.4865,0.5463 -1.5256,0.7786 -2.2306,0.6543c-0.9068,-0.1603 -1.2576,-1.0993 -0.8042,-1.8747c0.4964,-0.8473 1.5191,-1.024 2.4193,-0.867c0.6255,0.1113 0.8704,-0.8408 0.2416,-0.952z"/>
   <path id="svg_27" fill="#46A358" d="m70.5652,18.7663c-1.2543,-0.0818 -2.9918,0.0949 -3.2698,1.613c-0.2284,1.2432 1.2014,2.8856 2.2968,3.3273c3.1275,1.2596 3.796,-5.0221 1.0988,-4.8552c-0.6355,0.0392 -0.6189,1.0207 0.0198,0.9815c0.877,-0.0556 0.6619,1.9957 0.4633,2.4014c-0.4666,0.9652 -1.3602,0.6118 -1.9493,-0.0033c-0.4534,-0.4744 -1.2675,-1.3152 -0.7975,-1.9957c0.4534,-0.6543 1.4661,-0.53 2.1578,-0.4875c0.6387,0.0426 0.6122,-0.9389 -0.0199,-0.9815z"/>
   <path id="svg_28" fill="#46A358" d="m52.6377,6.17679c-0.0993,0.33044 -0.2019,0.66088 -0.3012,0.99132c-0.1225,0.40569 0.5196,0.56273 0.642,0.16032c0.0993,-0.33044 0.2019,-0.66088 0.3012,-0.99132c0.1225,-0.40569 -0.5196,-0.56273 -0.642,-0.16032z"/>
   <path id="svg_29" fill="#46A358" d="m54.0508,6.23246c0.0033,0.2192 0.01,0.43513 0.0133,0.65433c0.0099,0.42205 0.6718,0.40896 0.6619,-0.01308c-0.0033,-0.21921 -0.01,-0.43514 -0.0133,-0.65434c-0.0066,-0.42205 -0.6685,-0.40896 -0.6619,0.01309z"/>
   <path id="svg_30" fill="#46A358" d="m53.5809,10.1682c0.4269,-0.0098 0.4137,-0.66411 -0.0133,-0.6543c-0.4236,0.00655 -0.4103,0.6609 0.0133,0.6543z"/>
   <path id="svg_31" fill="#46A358" d="m51.605,10.5347c-0.0298,0.3631 -0.0595,0.7296 -0.086,1.0927c-0.0133,0.1767 0.1721,0.3239 0.3376,0.3207c0.1952,-0.0033 0.311,-0.1571 0.3243,-0.3338c0.0298,-0.3631 0.0596,-0.7295 0.086,-1.0927c0.0133,-0.1767 -0.1721,-0.3239 -0.3375,-0.3206c-0.1953,0.0033 -0.3111,0.157 -0.3244,0.3337z"/>
   <path id="svg_32" fill="#46A358" d="m53.1704,11.5948c0.0099,0.3991 0.0165,0.7983 0.0265,1.2007c0.0099,0.422 0.6718,0.4089 0.6619,-0.0131c-0.0099,-0.3992 -0.0166,-0.7983 -0.0265,-1.2007c-0.0099,-0.4221 -0.6718,-0.409 -0.6619,0.0131z"/>
   <path id="svg_33" fill="#46A358" d="m54.342,9.27847c0.043,0.32717 0.0861,0.65433 0.1291,0.97823c0.0232,0.1767 0.1456,0.3239 0.3376,0.3206c0.1621,-0.0032 0.3475,-0.157 0.3243,-0.3337c-0.043,-0.32715 -0.0861,-0.65432 -0.1291,-0.97822c-0.0231,-0.17667 -0.1456,-0.3239 -0.3375,-0.32062c-0.1655,0.00327 -0.3509,0.15704 -0.3244,0.33371z"/>
   <path id="svg_34" fill="#46A358" d="m54.438,14.1859c0.0033,0.1833 0.0066,0.3632 0.0099,0.5464c0.0099,0.4221 0.6718,0.409 0.6619,-0.0131c-0.0033,-0.1832 -0.0066,-0.3631 -0.0099,-0.5463c-0.01,-0.4221 -0.6719,-0.409 -0.6619,0.013z"/>
   <path id="svg_35" fill="#46A358" d="m53.005,8.86951c-0.0331,0.32389 0.0397,0.62816 0.1754,0.92261c0.0728,0.16032 0.3177,0.19303 0.4567,0.10797c0.1688,-0.10142 0.182,-0.28791 0.1092,-0.45149c-0.086,-0.18649 -0.0993,-0.39261 -0.0794,-0.59545c0.0166,-0.17667 -0.1754,-0.3239 -0.3376,-0.32063c-0.1952,0.00655 -0.3078,0.16032 -0.3243,0.33699z"/>
   <path id="svg_36" fill="#46A358" d="m50.6949,14.0648c-0.0661,0.3665 -0.1323,0.7296 -0.1985,1.096c-0.0761,0.4123 0.5659,0.5759 0.642,0.1604c0.0662,-0.3665 0.1324,-0.7296 0.1986,-1.0961c0.0728,-0.4122 -0.5659,-0.5758 -0.6421,-0.1603z"/>
   <path id="svg_37" fill="#46A358" d="m52.5184,16.3222c-0.0298,0.2552 -0.0629,0.5104 -0.0926,0.7656c-0.0199,0.1767 0.0496,0.3501 0.2382,0.3992c0.1556,0.0392 0.3806,-0.0589 0.4038,-0.2356c0.0298,-0.2552 0.0629,-0.5104 0.0927,-0.7656c0.0198,-0.1766 -0.0497,-0.35 -0.2383,-0.3991c-0.1556,-0.0425 -0.3806,0.0589 -0.4038,0.2355z"/>
   <path id="svg_38" fill="#46A358" d="m51.936,20.978c0.0529,0.2781 0.0199,0.5497 -0.0695,0.8147c-0.1357,0.3991 0.5063,0.5594 0.642,0.1603c0.1291,-0.3795 0.139,-0.7689 0.0629,-1.1615c-0.0331,-0.1734 -0.2515,-0.2682 -0.4104,-0.2192c-0.1886,0.0557 -0.2614,0.2323 -0.225,0.4057z"/>
   <path id="svg_39" fill="#46A358" d="m49.9139,18.3378c-0.0298,0.2552 -0.0629,0.5104 -0.0926,0.7656c-0.0199,0.1766 0.0496,0.35 0.2382,0.3991c0.1556,0.0393 0.3806,-0.0589 0.4038,-0.2356c0.0298,-0.2552 0.0629,-0.5103 0.0927,-0.7655c0.0198,-0.1767 -0.0497,-0.3501 -0.2383,-0.3992c-0.1589,-0.0392 -0.3839,0.0589 -0.4038,0.2356z"/>
   <path id="svg_40" fill="#46A358" d="m54.4215,18.8578c0.0794,0.3632 0.1555,0.7263 0.235,1.0862c0.0893,0.4122 0.7248,0.2225 0.6354,-0.1865c-0.0794,-0.3631 -0.1556,-0.7263 -0.235,-1.0862c-0.0893,-0.4122 -0.7215,-0.2257 -0.6354,0.1865z"/>
   <path id="svg_41" fill="#46A358" d="m54.855,23.6673c0.0066,0.3631 0.0166,0.7263 0.0232,1.0894c0.0099,0.4221 0.6718,0.409 0.6619,-0.013c-0.0066,-0.3632 -0.0165,-0.7264 -0.0232,-1.0895c-0.0066,-0.4221 -0.6685,-0.409 -0.6619,0.0131z"/>
   <path id="svg_42" fill="#46A358" d="m54.0739,28.4637c0.0431,0.2552 0.0828,0.5071 0.1258,0.7623c0.0298,0.1734 0.2548,0.265 0.4104,0.2192c0.1886,-0.0556 0.2515,-0.2323 0.2217,-0.4057c-0.043,-0.2552 -0.0827,-0.5071 -0.1257,-0.7623c-0.0298,-0.1734 -0.2549,-0.265 -0.4104,-0.2192c-0.1887,0.0523 -0.2515,0.229 -0.2218,0.4057z"/>
   <path id="svg_43" fill="#46A358" d="m51.3733,26.0295c0.0033,0.2192 0.01,0.4351 0.0133,0.6543c0.0099,0.422 0.6718,0.409 0.6619,-0.0131c-0.0033,-0.2192 -0.0099,-0.4351 -0.0133,-0.6543c-0.0066,-0.4221 -0.6685,-0.409 -0.6619,0.0131z"/>
   <path id="svg_44" fill="#46A358" d="m49.5498,23.2289c0.0232,0.2715 -0.0033,0.5267 -0.0827,0.7885c-0.1224,0.4056 0.5196,0.5627 0.6421,0.1603c0.0959,-0.3108 0.129,-0.638 0.1025,-0.9619c-0.0364,-0.4155 -0.6983,-0.4057 -0.6619,0.0131z"/>
   <path id="svg_45" fill="#46A358" d="m50.3805,30.7604c-0.0331,0.2552 -0.0628,0.5104 -0.0959,0.7656c-0.0232,0.1766 0.0496,0.35 0.2382,0.3991c0.1556,0.0393 0.3806,-0.0589 0.4038,-0.2356c0.0331,-0.2552 0.0629,-0.5103 0.096,-0.7655c0.0231,-0.1767 -0.0497,-0.3501 -0.2383,-0.3992c-0.1589,-0.0392 -0.3806,0.0589 -0.4038,0.2356z"/>
   <path id="svg_46" fill="#46A358" d="m53.7562,34.4672c0.0431,0.2159 0.0828,0.4351 0.1258,0.651c0.0331,0.1734 0.2515,0.2683 0.4104,0.2192c0.1853,-0.0556 0.2548,-0.2323 0.2217,-0.4057c-0.043,-0.2159 -0.0827,-0.4351 -0.1257,-0.651c-0.0331,-0.1734 -0.2516,-0.2683 -0.4104,-0.2192c-0.1854,0.0556 -0.2549,0.2323 -0.2218,0.4057z"/>
   <path id="svg_47" fill="#46A358" d="m51.9657,38.2131c0.0795,0.3632 0.1622,0.7231 0.2416,1.0862c0.0927,0.4123 0.7248,0.2225 0.6355,-0.1864c-0.0795,-0.3632 -0.1622,-0.7231 -0.2416,-1.0862c-0.0927,-0.4123 -0.7281,-0.2258 -0.6355,0.1864z"/>
   <path id="svg_48" fill="#46A358" d="m55.6592,40.5818c-0.0695,0.2552 -0.1357,0.5104 -0.2052,0.7689c-0.1092,0.4089 0.5328,0.5692 0.642,0.1603c0.0695,-0.2552 0.1357,-0.5104 0.2052,-0.7689c0.1092,-0.4089 -0.5328,-0.5692 -0.642,-0.1603z"/>
   <path id="svg_49" fill="#46A358" d="m55.166,12.1869c0.0431,0.2552 0.0861,0.5072 0.1291,0.7623c0.0298,0.1734 0.2548,0.2651 0.4104,0.2192c0.1886,-0.0556 0.2515,-0.2322 0.2217,-0.4056c-0.043,-0.2552 -0.086,-0.5072 -0.1291,-0.7623c-0.0297,-0.1734 -0.2548,-0.265 -0.4103,-0.2192c-0.1854,0.0556 -0.2516,0.2322 -0.2218,0.4056z"/>
   <path id="svg_50" fill="#46A358" d="m55.2455,16.6789c0.0464,0.3271 0.0927,0.651 0.139,0.9782c0.0265,0.1734 0.1424,0.3239 0.3376,0.3206c0.1622,-0.0033 0.3475,-0.157 0.3244,-0.3337c-0.0464,-0.3272 -0.0927,-0.6511 -0.139,-0.9782c-0.0265,-0.1734 -0.1424,-0.3239 -0.3376,-0.3207c-0.1622,0.0033 -0.3508,0.1604 -0.3244,0.3338z"/>
   <path id="svg_51" fill="#46A358" d="m60.2097,20.3106c-0.0893,0.5136 -0.182,1.024 -0.2713,1.5377c-0.0728,0.4122 0.5692,0.5758 0.642,0.1603c0.0894,-0.5137 0.182,-1.0241 0.2714,-1.5377c0.0728,-0.4123 -0.5692,-0.5758 -0.6421,-0.1603z"/>
   <path id="svg_52" fill="#46A358" d="m61.4972,19.388c0.0067,0.2552 0.01,0.5104 0.0166,0.7623c0.0099,0.422 0.6718,0.4089 0.6619,-0.0131c-0.0066,-0.2552 -0.0099,-0.5104 -0.0166,-0.7623c-0.0099,-0.4221 -0.6685,-0.409 -0.6619,0.0131z"/>
   <path id="svg_53" fill="#46A358" d="m61.1364,22.8854c-0.0629,0.5464 -0.1225,1.0927 -0.1853,1.6391c-0.0464,0.4188 0.6155,0.3992 0.6619,-0.0131c0.0628,-0.5463 0.1224,-1.0927 0.1853,-1.6391c0.0463,-0.4155 -0.6156,-0.3991 -0.6619,0.0131z"/>
   <path id="svg_54" fill="#46A358" d="m59.4221,23.8439c-0.1423,0.2944 -0.2813,0.5889 -0.4236,0.8801c-0.1821,0.3795 0.3971,0.7001 0.5791,0.3173c0.1423,-0.2944 0.2813,-0.5889 0.4236,-0.88c0.1821,-0.3796 -0.3971,-0.7002 -0.5791,-0.3174z"/>
   <path id="svg_55" fill="#46A358" d="m58.4259,22.0936c-0.086,0.2225 -0.1688,0.4417 -0.2548,0.6641c-0.0629,0.1669 0.0794,0.3567 0.2383,0.3992c0.1886,0.0491 0.3376,-0.072 0.4037,-0.2356c0.0861,-0.2224 0.1688,-0.4416 0.2549,-0.6641c0.0629,-0.1669 -0.0795,-0.3566 -0.2383,-0.3992c-0.1887,-0.049 -0.3376,0.0687 -0.4038,0.2356z"/>
   <path id="svg_56" fill="#46A358" d="m60.3156,26.3925c-0.0132,0.2912 -0.0231,0.5824 -0.0364,0.8735c-0.0165,0.4221 0.6454,0.4057 0.6619,-0.013c0.0133,-0.2912 0.0232,-0.5824 0.0364,-0.8736c0.0166,-0.422 -0.6453,-0.4057 -0.6619,0.0131z"/>
   <path id="svg_57" fill="#46A358" d="m61.6726,28.1103c-0.0133,0.2715 -0.0265,0.5463 -0.0398,0.8179c-0.0099,0.1766 0.1688,0.3239 0.3376,0.3206c0.1887,-0.0033 0.3144,-0.157 0.3244,-0.3337c0.0132,-0.2716 0.0264,-0.5464 0.0397,-0.8179c0.0099,-0.1767 -0.1688,-0.3239 -0.3376,-0.3207c-0.1887,0.0033 -0.3144,0.1571 -0.3243,0.3338z"/>
   <path id="svg_58" fill="#46A358" d="m61.1497,31.035c-0.0298,0.2356 -0.0629,0.4744 -0.0927,0.71c-0.0231,0.1734 0.053,0.35 0.2383,0.3991c0.1589,0.0393 0.3806,-0.0589 0.4038,-0.2356c0.0297,-0.2355 0.0628,-0.4743 0.0926,-0.7099c0.0232,-0.1734 -0.0529,-0.3501 -0.2383,-0.3991c-0.1588,-0.0426 -0.3806,0.0588 -0.4037,0.2355z"/>
   <path id="svg_59" fill="#46A358" d="m58.6808,29.0133c-0.0331,0.1996 -0.0662,0.4024 -0.0993,0.602c-0.0298,0.1734 0.0562,0.35 0.2383,0.3991c0.1621,0.0393 0.3739,-0.0621 0.4037,-0.2355c0.0331,-0.1996 0.0662,-0.4025 0.0993,-0.602c0.0298,-0.1734 -0.0563,-0.3501 -0.2383,-0.3992c-0.1621,-0.0425 -0.374,0.0589 -0.4037,0.2356z"/>
   <path id="svg_60" fill="#46A358" d="m59.1573,34.2152c0.0033,0.144 0.0067,0.2912 0.01,0.4352c0.0099,0.422 0.6718,0.4089 0.6619,-0.0131c-0.0033,-0.144 -0.0067,-0.2912 -0.01,-0.4351c-0.0099,-0.4221 -0.6718,-0.409 -0.6619,0.013z"/>
   <path id="svg_61" fill="#46A358" d="m61.2953,36.1357c0.0033,0.1439 0.0066,0.2911 0.0099,0.4351c0.0099,0.422 0.6718,0.4089 0.6619,-0.0131c-0.0033,-0.144 -0.0066,-0.2912 -0.0099,-0.4351c-0.0099,-0.4221 -0.6719,-0.409 -0.6619,0.0131z"/>
   <path id="svg_62" fill="#46A358" d="m59.389,40.101c0.0265,0.2552 0,0.4908 -0.0827,0.7329c-0.0563,0.1668 0.0761,0.3566 0.2382,0.3991c0.1854,0.0458 0.3442,-0.0687 0.4038,-0.2356c0.0993,-0.2911 0.1357,-0.6019 0.1026,-0.9062c-0.0199,-0.1767 -0.1489,-0.3239 -0.3376,-0.3206c-0.1688,0 -0.3442,0.1537 -0.3243,0.3304z"/>
   <path id="svg_63" fill="#46A358" d="m60.2064,18.6517c-0.086,0.1668 -0.1754,0.3337 -0.2614,0.4973c-0.1953,0.3729 0.3806,0.6935 0.5791,0.3173c0.0861,-0.1669 0.1754,-0.3337 0.2615,-0.4973c0.1953,-0.373 -0.3806,-0.6936 -0.5792,-0.3173z"/>
   <path id="svg_64" fill="#46A358" d="m43.04,12.4324c0.0596,0.3436 0.1225,0.6904 0.1821,1.0339c0.0297,0.1734 0.2548,0.265 0.4103,0.2192c0.1887,-0.0556 0.2549,-0.2323 0.2218,-0.4057c-0.0596,-0.3435 -0.1225,-0.6903 -0.1821,-1.0339c-0.0297,-0.1734 -0.2548,-0.265 -0.4103,-0.2192c-0.1887,0.0557 -0.2549,0.2323 -0.2218,0.4057z"/>
   <path id="svg_65" fill="#46A358" d="m44.0262,14.595c0.1523,0.3599 0.3078,0.723 0.4601,1.0829c0.0695,0.1636 0.2283,0.2748 0.4103,0.2192c0.1556,-0.0458 0.2913,-0.2421 0.2218,-0.4057c-0.1523,-0.3599 -0.3078,-0.723 -0.46,-1.0829c-0.0695,-0.1636 -0.2284,-0.2748 -0.4104,-0.2192c-0.1556,0.0458 -0.2913,0.2421 -0.2218,0.4057z"/>
   <path id="svg_66" fill="#46A358" d="m43.1227,15.8023c-0.0761,0.5038 -0.0695,0.9847 0.0199,1.482c0.0728,0.4123 0.7049,0.2258 0.6354,-0.1865c-0.0662,-0.3729 -0.0662,-0.759 -0.0099,-1.1352c0.0562,-0.4123 -0.5858,-0.5758 -0.6454,-0.1603z"/>
   <path id="svg_67" fill="#46A358" d="m44.3804,17.6931c0.1125,0.3075 0.2217,0.6183 0.3342,0.9259c0.1423,0.3959 0.7778,0.2126 0.6355,-0.1865c-0.1126,-0.3075 -0.2218,-0.6184 -0.3343,-0.9259c-0.1423,-0.3959 -0.7777,-0.2126 -0.6354,0.1865z"/>
   <path id="svg_68" fill="#46A358" d="m42.8415,19.0019c0.0066,0.3631 0.0165,0.7263 0.0231,1.0894c0.01,0.4221 0.6719,0.409 0.6619,-0.013c-0.0066,-0.3632 -0.0165,-0.7264 -0.0231,-1.0895c-0.0066,-0.4221 -0.6685,-0.409 -0.6619,0.0131z"/>
   <path id="svg_69" fill="#46A358" d="m44.0825,20.232c0.0066,0.3271 0.0132,0.6543 0.0199,0.9815c0.0099,0.422 0.6718,0.4089 0.6619,-0.0131c-0.0067,-0.3272 -0.0133,-0.6543 -0.0199,-0.9815c-0.0099,-0.4221 -0.6718,-0.409 -0.6619,0.0131z"/>
   <path id="svg_70" fill="#46A358" d="m45.9326,20.8797c0.1324,0.3796 0.2681,0.7591 0.4004,1.1386c0.139,0.3959 0.7745,0.2127 0.6355,-0.1865c-0.1324,-0.3795 -0.2681,-0.759 -0.4005,-1.1385c-0.139,-0.3959 -0.7744,-0.2127 -0.6354,0.1864z"/>
   <path id="svg_71" fill="#46A358" d="m46.6573,24.1383c0.0397,0.1996 0.0827,0.3992 0.1225,0.5987c0.0364,0.1734 0.2515,0.2683 0.4103,0.2192c0.1854,-0.0556 0.2582,-0.2323 0.2218,-0.4057c-0.0397,-0.1995 -0.0828,-0.3991 -0.1225,-0.5987c-0.0364,-0.1734 -0.2515,-0.2683 -0.4104,-0.2192c-0.182,0.0524 -0.2581,0.2323 -0.2217,0.4057z"/>
   <path id="svg_72" fill="#46A358" d="m44.8405,24.1743c0.1092,0.3075 0.1886,0.6216 0.225,0.9455c0.0199,0.1767 0.1489,0.3239 0.3376,0.3206c0.1655,-0.0032 0.3442,-0.157 0.3243,-0.3337c-0.043,-0.3828 -0.1224,-0.7557 -0.2515,-1.1189c-0.1423,-0.3959 -0.7778,-0.2126 -0.6354,0.1865z"/>
   <path id="svg_73" fill="#46A358" d="m43.1426,22.8689c0.0066,0.2552 0.01,0.5104 0.0166,0.7623c0.0099,0.4221 0.6718,0.409 0.6619,-0.0131c-0.0066,-0.2551 -0.01,-0.5103 -0.0166,-0.7623c-0.0099,-0.422 -0.6685,-0.4089 -0.6619,0.0131z"/>
   <path id="svg_74" fill="#46A358" d="m43.9402,26.7786c0.0265,0.3272 0.0893,0.6478 0.1986,0.9553c0.1423,0.3959 0.7777,0.2127 0.6354,-0.1865c-0.0927,-0.2552 -0.1523,-0.5136 -0.1721,-0.7819c-0.0298,-0.4188 -0.6917,-0.4057 -0.6619,0.0131z"/>
   <path id="svg_75" fill="#46A358" d="m45.3898,29.5629c0.0596,0.1996 0.1191,0.3991 0.1787,0.5954c0.1192,0.4025 0.7546,0.2192 0.6354,-0.1865c-0.0595,-0.1995 -0.1191,-0.3958 -0.1787,-0.5954c-0.1191,-0.4024 -0.7545,-0.2192 -0.6354,0.1865z"/>
   <path id="svg_76" fill="#46A358" d="m46.1675,27.0372c0.0397,0.144 0.0794,0.2879 0.1191,0.4351c0.1125,0.4057 0.748,0.2192 0.6354,-0.1864c-0.0397,-0.144 -0.0794,-0.288 -0.1191,-0.4352c-0.1125,-0.4057 -0.748,-0.2192 -0.6354,0.1865z"/>
   <path id="svg_77" fill="#46A358" d="m44.2911,32.4779c0.0827,0.3239 0.1621,0.6511 0.2449,0.975c0.1026,0.4089 0.738,0.2224 0.6354,-0.1865c-0.0827,-0.3239 -0.1622,-0.6511 -0.2449,-0.975c-0.1026,-0.409 -0.738,-0.2225 -0.6354,0.1865z"/>
   <path id="svg_78" fill="#46A358" d="m45.9358,37.2416c0.0596,0.1439 0.1159,0.2879 0.1754,0.4319c0.0662,0.1635 0.2284,0.2748 0.4104,0.2192c0.1589,-0.0459 0.2879,-0.2422 0.2217,-0.4057c-0.0595,-0.144 -0.1158,-0.2879 -0.1754,-0.4319c-0.0661,-0.1636 -0.2283,-0.2748 -0.4103,-0.2192c-0.1589,0.0458 -0.288,0.2421 -0.2218,0.4057z"/>
   <path id="svg_79" fill="#46A358" d="m67.4808,23.6836c-0.1754,0.35 -0.3541,0.6968 -0.5295,1.0469c-0.192,0.3763 0.3872,0.6969 0.5792,0.3174c0.1754,-0.3501 0.3541,-0.6969 0.5295,-1.047c0.1919,-0.3762 -0.3872,-0.6936 -0.5792,-0.3173z"/>
   <path id="svg_80" fill="#46A358" d="m68.4074,24.5047c-0.0827,0.3305 -0.1687,0.6576 -0.2515,0.9881c-0.1059,0.4089 0.5362,0.5693 0.6421,0.1603c0.0827,-0.3304 0.1687,-0.6576 0.2515,-0.988c0.1026,-0.4057 -0.5395,-0.566 -0.6421,-0.1604z"/>
   <path id="svg_81" fill="#46A358" d="m67.5933,27.6326c-0.0828,0.2748 -0.1655,0.5497 -0.2516,0.8245c-0.1224,0.4057 0.5196,0.5627 0.6421,0.1603c0.0827,-0.2748 0.1655,-0.5496 0.2515,-0.8245c0.1192,-0.4024 -0.5229,-0.5627 -0.642,-0.1603z"/>
   <path id="svg_82" fill="#46A358" d="m67.0374,26.3076c-0.0695,0.1276 -0.1424,0.2584 -0.2119,0.386c-0.2051,0.3697 0.374,0.6904 0.5792,0.3174c0.0695,-0.1276 0.1423,-0.2585 0.2118,-0.3861c0.2052,-0.3664 -0.374,-0.687 -0.5791,-0.3173z"/>
   <path id="svg_83" fill="#46A358" d="m68.6722,26.4645c-0.0298,0.2552 -0.0596,0.5104 -0.0893,0.7656c-0.0199,0.1766 0.0496,0.35 0.2382,0.3991c0.1556,0.0393 0.3806,-0.0589 0.4038,-0.2355c0.0298,-0.2552 0.0596,-0.5104 0.0894,-0.7656c0.0198,-0.1767 -0.0497,-0.3501 -0.2383,-0.3992c-0.1589,-0.0392 -0.3839,0.0589 -0.4038,0.2356z"/>
   <path id="svg_84" fill="#46A358" d="m65.5546,28.1626c-0.0662,0.2094 -0.1655,0.3991 -0.2846,0.5824c-0.2317,0.3533 0.3475,0.6707 0.5792,0.3173c0.1522,-0.229 0.2647,-0.4777 0.3474,-0.7394c0.053,-0.1668 -0.0728,-0.3566 -0.2382,-0.3991c-0.1854,-0.0426 -0.3508,0.0687 -0.4038,0.2388z"/>
   <path id="svg_85" fill="#46A358" d="m65.5348,30.9763c-0.1423,0.2322 -0.2118,0.4972 -0.1986,0.7688c0.0198,0.4188 0.6818,0.409 0.6619,-0.0131c-0.0066,-0.1636 0.0265,-0.2977 0.1158,-0.4351c0.2218,-0.3632 -0.3574,-0.6805 -0.5791,-0.3206z"/>
   <path id="svg_86" fill="#46A358" d="m67.259,30.2565c-0.0662,0.2192 -0.1324,0.4417 -0.1953,0.6609c-0.1191,0.4057 0.5229,0.5627 0.6421,0.1603c0.0662,-0.2192 0.1324,-0.4417 0.1952,-0.6609c0.1192,-0.4057 -0.5229,-0.5627 -0.642,-0.1603z"/>
   <path id="svg_87" fill="#46A358" d="m66.713,33.4822c-0.0695,0.2389 -0.1357,0.4744 -0.2052,0.7133c-0.1158,0.4057 0.5262,0.566 0.6421,0.1603c0.0695,-0.2389 0.1356,-0.4744 0.2051,-0.7132c0.1159,-0.4025 -0.5262,-0.5628 -0.642,-0.1604z"/>
   <path id="svg_88" fill="#46A358" d="m68.8112,28.8366c-0.0166,0.1472 -0.0298,0.2911 -0.0464,0.4384c-0.0198,0.1766 0.1754,0.3239 0.3376,0.3206c0.1986,-0.0033 0.3045,-0.157 0.3243,-0.3337c0.0166,-0.1472 0.0298,-0.2912 0.0464,-0.4384c0.0198,-0.1767 -0.1754,-0.3239 -0.3376,-0.3206c-0.1986,0.0065 -0.3045,0.157 -0.3243,0.3337z"/>
   <path id="svg_89" fill="#46A358" d="m64.6545,35.3799c-0.0331,0.1112 -0.0695,0.2192 -0.1026,0.3304c-0.1258,0.4024 0.5163,0.5628 0.642,0.1603c0.0331,-0.1112 0.0695,-0.2192 0.1026,-0.3304c0.1258,-0.4024 -0.5163,-0.5595 -0.642,-0.1603z"/>
   <path id="svg_90" fill="#46A358" d="m64.1217,38.7203c-0.0695,0.1832 -0.1423,0.3664 -0.2118,0.5496c-0.0629,0.1636 0.0794,0.3567 0.2383,0.3992c0.1919,0.0491 0.3375,-0.072 0.4037,-0.2356c0.0695,-0.1832 0.1423,-0.3664 0.2118,-0.5496c0.0629,-0.1636 -0.0794,-0.3566 -0.2383,-0.3992c-0.1919,-0.049 -0.3375,0.0687 -0.4037,0.2356z"/>
   <path id="svg_91" fill="#46A358" d="m66.7262,37.3887c0.0033,0.108 0.0033,0.2192 0.0066,0.3272c0.0099,0.422 0.6718,0.4089 0.6619,-0.0131c-0.0033,-0.108 -0.0033,-0.2192 -0.0066,-0.3272c-0.0099,-0.422 -0.6718,-0.4089 -0.6619,0.0131z"/>
   <path id="svg_92" fill="#46A358" d="m65.4918,41.7237c-0.0165,0.1472 -0.0298,0.2911 -0.0463,0.4384c-0.0199,0.1766 0.1754,0.3239 0.3376,0.3206c0.1985,-0.0033 0.3044,-0.157 0.3243,-0.3337c0.0165,-0.1472 0.0298,-0.2912 0.0463,-0.4384c0.0199,-0.1767 -0.1754,-0.3239 -0.3375,-0.3207c-0.1953,0.0033 -0.3045,0.1571 -0.3244,0.3338z"/>
   <path id="svg_93" fill="#46A358" d="m35.2594,28.0808c0.0563,0.1799 0.1158,0.3631 0.1721,0.5431c0.1257,0.4024 0.7612,0.2159 0.6354,-0.1865c-0.0563,-0.18 -0.1158,-0.3632 -0.1721,-0.5431c-0.1291,-0.4024 -0.7645,-0.216 -0.6354,0.1865z"/>
   <path id="svg_94" fill="#46A358" d="m35.9411,27.3381c0.2218,0.2716 0.4468,0.5431 0.6686,0.8114c0.1125,0.1374 0.3541,0.1079 0.4666,-0.0098c0.1357,-0.1407 0.1026,-0.3239 -0.0099,-0.4613c-0.2218,-0.2716 -0.4468,-0.5431 -0.6685,-0.8114c-0.1126,-0.1374 -0.3542,-0.108 -0.4667,0.0098c-0.1357,0.1374 -0.1026,0.3239 0.0099,0.4613z"/>
   <path id="svg_95" fill="#46A358" d="m37.212,29.6414c0.1919,0.2683 0.3839,0.5366 0.5725,0.8016c0.2449,0.3435 0.8109,0.0033 0.5659,-0.3403c-0.1919,-0.2682 -0.3839,-0.5365 -0.5725,-0.8015c-0.2482,-0.3436 -0.8141,-0.0066 -0.5659,0.3402z"/>
   <path id="svg_96" fill="#46A358" d="m36.3979,30.4233c0.1522,0.2519 0.3044,0.5038 0.4567,0.7558c0.2184,0.3598 0.7843,0.0196 0.5659,-0.3403c-0.1522,-0.2519 -0.3045,-0.5038 -0.4567,-0.7558c-0.2218,-0.3631 -0.7844,-0.0229 -0.5659,0.3403z"/>
   <path id="svg_97" fill="#46A358" d="m37.8805,33.1225c0.192,0.3403 0.3872,0.6805 0.5792,1.0208c0.2085,0.3664 0.7744,0.0261 0.5659,-0.3403c-0.1919,-0.3402 -0.3872,-0.6805 -0.5791,-1.0207c-0.2119,-0.3665 -0.7745,-0.0262 -0.566,0.3402z"/>
   <path id="svg_98" fill="#46A358" d="m38.4663,32.1311c0.1324,0.1963 0.2648,0.3959 0.3971,0.5922c0.235,0.3501 0.8009,0.0098 0.566,-0.3403c-0.1324,-0.1963 -0.2648,-0.3958 -0.3972,-0.5921c-0.2383,-0.3501 -0.8042,-0.0131 -0.5659,0.3402z"/>
   <path id="svg_99" fill="#46A358" d="m38.7741,30.757c0.1092,0.2323 0.2945,0.4123 0.5162,0.5431c0.3707,0.2127 0.6917,-0.3599 0.3211,-0.5725c-0.1324,-0.0753 -0.2118,-0.1767 -0.2747,-0.3108c-0.0761,-0.1603 -0.3144,-0.1931 -0.4567,-0.108c-0.1622,0.1014 -0.1821,0.2879 -0.1059,0.4482z"/>
   <path id="svg_100" fill="#46A358" d="m36.2919,32.4746c0.043,0.1799 0.0827,0.3599 0.1257,0.5431c0.0397,0.1734 0.2482,0.2683 0.4104,0.2192c0.182,-0.0523 0.2615,-0.2356 0.2217,-0.4057c-0.043,-0.1799 -0.0827,-0.3599 -0.1257,-0.5431c-0.0397,-0.1734 -0.2482,-0.2683 -0.4104,-0.2192c-0.182,0.0524 -0.2614,0.2356 -0.2217,0.4057z"/>
   <path id="svg_101" fill="#46A358" d="m38.3802,35.8935c0.1523,0.3075 0.3045,0.6151 0.4534,0.9193c0.0795,0.1603 0.3144,0.193 0.4567,0.108c0.1655,-0.0982 0.1887,-0.2912 0.1093,-0.4515c-0.1523,-0.3075 -0.3045,-0.6151 -0.4534,-0.9193c-0.0795,-0.1604 -0.3145,-0.1931 -0.4568,-0.108c-0.1654,0.1014 -0.1886,0.2944 -0.1092,0.4515z"/>
   <path id="svg_102" fill="#46A358" d="m40.8525,34.9677c0.1158,0.216 0.2283,0.4319 0.3441,0.6478c0.1986,0.373 0.7612,0.0295 0.566,-0.3402c-0.1159,-0.216 -0.2284,-0.4319 -0.3442,-0.6478c-0.2019,-0.373 -0.7645,-0.0327 -0.5659,0.3402z"/>
   <path id="svg_103" fill="#46A358" d="m41.6071,39.6462c0.0959,0.1799 0.1919,0.3599 0.2912,0.5366c0.2019,0.3729 0.7645,0.0294 0.5659,-0.3403c-0.096,-0.1799 -0.1919,-0.3599 -0.2912,-0.5366c-0.2019,-0.3729 -0.7678,-0.0327 -0.5659,0.3403z"/>
   <path id="svg_104" fill="#46A358" d="m42.7819,37.9875c0.1125,0.18 0.2284,0.3599 0.3409,0.5398c0.225,0.3567 0.791,0.0164 0.5659,-0.3402c-0.1125,-0.18 -0.2284,-0.3599 -0.3409,-0.5398c-0.2283,-0.3566 -0.7943,-0.0164 -0.5659,0.3402z"/>
   <path id="svg_105" fill="#46A358" d="m44.099,43.0324c0.0927,0.1636 0.1887,0.3239 0.2813,0.4875c0.2118,0.3664 0.7745,0.0229 0.566,-0.3403c-0.0927,-0.1635 -0.1887,-0.3238 -0.2814,-0.4874c-0.2118,-0.3665 -0.7777,-0.0262 -0.5659,0.3402z"/>
   <path id="svg_106" fill="#46A358" d="m33.4259,41.0105c0.2217,0.1047 0.4468,0.2062 0.6685,0.3109c0.3839,0.1799 0.7082,-0.3926 0.321,-0.5726c-0.2217,-0.1047 -0.4467,-0.2061 -0.6685,-0.3108c-0.3806,-0.1767 -0.7049,0.3926 -0.321,0.5725z"/>
   <path id="svg_107" fill="#46A358" d="m35.5341,41.9625c0.2449,0.1734 0.4898,0.3501 0.7314,0.5235c0.1456,0.1046 0.3706,0.0163 0.4501,-0.1276c0.0959,-0.1702 0.0165,-0.3403 -0.1291,-0.445c-0.2449,-0.1734 -0.4898,-0.3501 -0.7314,-0.5235c-0.1456,-0.1047 -0.3707,-0.0163 -0.4501,0.1276c-0.0927,0.1702 -0.0132,0.3403 0.1291,0.445z"/>
   <path id="svg_108" fill="#46A358" d="m35.2098,40.9615c0.1688,0.036 0.3243,0.0916 0.4765,0.1766c0.374,0.2029 0.695,-0.3697 0.3211,-0.5725c-0.1986,-0.108 -0.4137,-0.1898 -0.6355,-0.2388c-0.4137,-0.0916 -0.5791,0.5431 -0.1621,0.6347z"/>
   <path id="svg_109" fill="#46A358" d="m37.1491,42.3584c0.1489,0.1047 0.2978,0.2126 0.4468,0.3173c0.1456,0.1015 0.3706,0.0164 0.4501,-0.1276c0.0959,-0.1701 0.0165,-0.3435 -0.1291,-0.4449c-0.1489,-0.1047 -0.2979,-0.2127 -0.4468,-0.3174c-0.1456,-0.1014 -0.3707,-0.0163 -0.4501,0.1276c-0.0927,0.1702 -0.0165,0.3403 0.1291,0.445z"/>
   <path id="svg_110" fill="#46A358" d="m37.1028,43.3366c0.0761,0.108 0.1522,0.2159 0.2283,0.3239c0.2416,0.3435 0.8076,0.0065 0.566,-0.3403c-0.0762,-0.1079 -0.1523,-0.2159 -0.2284,-0.3239c-0.2416,-0.3468 -0.8108,-0.0065 -0.5659,0.3403z"/>
   <path id="svg_111" fill="#46A358" d="m38.602,43.8633c0.1489,0.1243 0.2979,0.2486 0.4501,0.373c0.1357,0.1145 0.3376,0.1243 0.4666,-0.0099c0.1192,-0.121 0.1291,-0.35 -0.0099,-0.4613c-0.1489,-0.1243 -0.2978,-0.2486 -0.4501,-0.3729c-0.1357,-0.1145 -0.3375,-0.1244 -0.4666,0.0098c-0.1192,0.1178 -0.1291,0.3468 0.0099,0.4613z"/>
   <path id="svg_112" fill="#46A358" d="m72.7628,34.225c-0.3542,-0.0654 -0.705,-0.0589 -1.0558,0.0295c-0.4137,0.1046 -0.225,0.7328 0.1887,0.6281c0.2316,-0.0589 0.4666,-0.0687 0.7016,-0.0229c0.4203,0.0785 0.5825,-0.5562 0.1655,-0.6347z"/>
   <path id="svg_113" fill="#46A358" d="m70.4793,34.9022c-0.1258,0.0949 -0.2549,0.1865 -0.3806,0.2814c-0.1423,0.1047 -0.2085,0.2879 -0.1092,0.4515c0.086,0.1407 0.3111,0.2159 0.4567,0.1079c0.1257,-0.0948 0.2548,-0.1864 0.3806,-0.2813c0.1423,-0.1047 0.2085,-0.2879 0.1092,-0.4515c-0.0861,-0.1407 -0.3111,-0.2127 -0.4567,-0.108z"/>
   <path id="svg_114" fill="#46A358" d="m70.5851,34.5816c0.4269,-0.0099 0.4137,-0.6642 -0.0133,-0.6544c-0.4269,0.0098 -0.4137,0.6642 0.0133,0.6544z"/>
  </g>
  <g id="svg_115" clip-path="url(#clip1_10_730)">
   <path id="svg_116" fill="#727272" d="m37.3859,47.6165c-2.3412,6.0145 -3.9888,12.2999 -4.5291,18.7544c-0.4602,5.517 -0.3201,11.4673 2.7015,16.2803c0.3468,0.5517 1.2006,0.0237 0.8537,-0.5314c-3.0316,-4.8265 -3.0249,-10.8817 -2.4979,-16.3953c0.5869,-6.1432 2.2144,-12.1307 4.4423,-17.8575c0.2334,-0.6059 -0.7371,-0.8496 -0.9705,-0.2505z"/>
   <path id="svg_117" fill="#727272" d="m67.7884,46.6856c5.3261,4.0616 5.3328,11.5079 5.9064,17.6206c0.2901,3.0834 0.6904,6.177 0.8304,9.274c0.1301,2.8295 -0.1034,5.8351 -2.3112,7.8389c-0.4802,0.4366 0.2435,1.1372 0.7204,0.704c1.9443,-1.7634 2.5447,-4.2884 2.6114,-6.8506c0.0967,-3.6487 -0.5136,-7.3583 -0.8538,-10.9832c-0.597,-6.37 -0.6704,-14.1073 -6.2133,-18.3348c-0.5069,-0.3892 -1.2039,0.3385 -0.6903,0.7311z"/>
   <path id="svg_118" fill="#727272" d="m35.7583,82.8542c2.8248,1.0323 5.713,1.2895 8.6845,1.5434c3.2884,0.2809 6.6068,0.704 9.9119,0.5855c3.3551,-0.1184 6.7202,-0.6025 10.0552,-0.968c2.9182,-0.3215 5.8131,-0.7277 8.5345,-1.9056c0.5836,-0.2538 0.3068,-1.232 -0.2868,-0.9747c-2.8215,1.2218 -5.8164,1.6009 -8.8413,1.9258c-3.1483,0.3385 -6.3167,0.7954 -9.4816,0.9071c-3.1017,0.1117 -6.2099,-0.2708 -9.2982,-0.5314c-3.0783,-0.264 -6.0999,-0.4941 -9.0314,-1.5637c-0.607,-0.2268 -0.8471,0.7616 -0.2468,0.9816z"/>
   <path id="svg_119" fill="#727272" d="m37.626,48.1851c2.3278,0.9647 4.7058,1.8176 7.2171,2.1188c2.6113,0.3114 5.2727,-0.1354 7.9008,-0.0677c1.4574,0.0373 2.7681,0.237 4.2388,0.0237c1.2674,-0.1861 2.5347,-0.4434 3.7653,-0.7987c2.5514,-0.7379 5.0227,-1.7668 7.5273,-2.6536c0.6036,-0.2133 0.3235,-1.188 -0.2868,-0.9748c-4.9026,1.7363 -9.4983,3.7637 -14.7911,3.4151c-2.2011,-0.1455 -4.3923,0.1828 -6.5867,0.1625c-2.9549,-0.0305 -5.7964,-0.9917 -8.5045,-2.1121c-0.5836,-0.2436 -1.0772,0.6398 -0.4802,0.8868z"/>
   <path id="svg_120" fill="#727272" d="m7.66372,51.2414c5.60288,0.8936 10.81568,3.5844 14.72098,7.778c3.7787,4.0582 5.9031,9.406 10.0253,13.1731c0.4769,0.4366 1.1739,-0.2945 0.6937,-0.7311c-4.369,-3.9939 -6.5535,-9.7715 -10.7556,-13.9245c-3.9354,-3.889 -9.0248,-6.4173 -14.43758,-7.2804c-0.63367,-0.1016 -0.8838,0.8834 -0.2468,0.9849z"/>
   <path id="svg_121" fill="#727272" d="m8.53746,49.4239c5.08604,-1.1779 10.49214,-0.4773 15.06124,2.1188c3.6452,2.0714 6.6368,5.3444 10.989,5.7911c0.6404,0.0643 0.6137,-0.9511 -0.02,-1.0154c-4.8825,-0.5009 -8.4044,-4.9653 -12.8067,-6.7998c-4.2922,-1.7871 -8.998,-2.112 -13.50702,-1.0695c-0.63033,0.1455 -0.34351,1.1203 0.28348,0.9748z"/>
   <path id="svg_122" fill="#727272" d="m7.72372,48.7435c-0.38353,0.5348 -0.63033,1.161 -0.71704,1.8142c-0.03669,0.2742 0.08004,0.5416 0.36352,0.616c0.23679,0.0643 0.5703,-0.0947 0.60699,-0.3689c0.0767,-0.5822 0.28014,-1.0933 0.62032,-1.5705c0.16008,-0.2234 0.02001,-0.5652 -0.19343,-0.6905c-0.25681,-0.1455 -0.52361,-0.0203 -0.68036,0.1997z"/>
   <path id="svg_123" fill="#727272" d="m71.8106,49.6709c2.0677,-4.0176 8.6378,-4.5354 12.3464,-2.6942c4.0188,1.997 5.8731,6.8337 4.2255,11.0645c-1.434,3.6859 -5.1193,5.49 -8.1509,7.6155c-1.2773,0.897 -2.6981,1.9056 -3.5819,3.229c-0.9238,1.3843 -0.8037,3.1444 -1.7175,4.5253c-0.3602,0.5449 0.5169,1.0323 0.8738,0.4942c0.5769,-0.8699 0.7437,-1.7973 1.0005,-2.7924c0.3635,-1.3911 1.0906,-2.2846 2.1344,-3.1951c1.7976,-1.5671 3.9054,-2.701 5.8197,-4.1056c3.3885,-2.4877 5.7664,-6.0213 5.1361,-10.4485c-0.577,-4.0311 -3.772,-7.365 -7.7174,-8.0995c-3.9754,-0.7412 -9.2148,-0.0271 -11.2459,3.9161c-0.2968,0.5754 0.577,1.0695 0.8772,0.4907z"/>
   <path id="svg_124" fill="#727272" d="m72.8244,52.2263c1.3841,-2.8025 4.5357,-3.5268 7.3972,-3.3034c1.9077,0.1489 3.085,0.9105 4.0822,2.5724c1.1039,1.8344 1.0505,3.388 0.4268,5.3443c-0.9805,3.0666 -2.7481,4.4881 -5.4661,5.9266c-1.781,0.9409 -4.4991,2.173 -5.2094,4.2545c-0.2101,0.6194 0.7604,0.8631 0.9705,0.2505c0.647,-1.8954 3.822,-3.1274 5.4562,-4.0041c1.4174,-0.7581 2.7447,-1.5941 3.7019,-2.9311c1.5141,-2.112 2.7581,-5.561 1.6609,-8.0623c-1.3407,-3.0597 -3.3918,-4.417 -6.6669,-4.3933c-2.9148,0.0203 -5.853,1.0764 -7.2237,3.8518c-0.2902,0.5821 0.5836,1.0763 0.8704,0.4941z"/>
   <path id="svg_125" fill="#727272" d="m54.3081,59.5711c-2.9415,0.4434 -5.4262,2.6637 -5.723,5.7675c-0.2835,2.9582 1.6842,6.8099 5.026,6.5832c3.0482,-0.2065 5.7563,-3.2053 6.0364,-6.2041c0.3102,-3.3001 -2.1277,-6.1771 -5.4395,-6.0315c-0.6436,0.0271 -0.6236,1.0425 0.02,1.0154c2.9049,-0.1286 4.9059,2.5656 4.3623,5.4019c-0.4402,2.2948 -2.6213,4.6099 -4.9993,4.8062c-2.9215,0.2404 -4.4123,-3.5132 -3.9487,-5.9502c0.4436,-2.3354 2.4146,-4.0278 4.6858,-4.3696c0.627,-0.0982 0.617,-1.1169 -0.02,-1.0188z"/>
   <path id="svg_126" fill="#727272" d="m54.8817,60.0145c-0.1768,-2.1526 3.1549,-5.4256 4.8225,-2.9345c0.5169,0.7717 1.0172,2.1425 0.8037,3.0936c-0.2301,1.0188 -1.2139,1.7803 -1.9677,2.4065c-0.4969,0.4129 0.2302,1.1135 0.7204,0.704c1.1873,-0.9849 2.4079,-2.1662 2.2946,-3.8551c-0.0934,-1.381 -0.8472,-3.2019 -2.0344,-3.9601c-2.5347,-1.6212 -5.8431,2.0917 -5.6397,4.5693c0.0534,0.6465 1.0539,0.6296 1.0006,-0.0237z"/>
   <path id="svg_127" fill="#727272" d="m59.5274,63.5109c1.254,-0.7548 4.499,-0.5551 4.1622,1.6246c-0.3202,2.0782 -2.9716,2.1628 -4.5424,2.1831c-0.6437,0.0068 -0.6237,1.0222 0.02,1.0154c2.2045,-0.027 6.0598,-0.7311 5.5095,-3.8957c-0.4335,-2.4844 -3.8887,-2.8702 -5.6729,-1.7939c-0.5537,0.3351 -0.0334,1.2016 0.5236,0.8665z"/>
   <path id="svg_128" fill="#727272" d="m58.5203,68.5201c1.7542,0.7852 3.7286,3.1173 2.0611,4.9991c-1.951,2.2001 -4.7725,0.0237 -5.4929,-2.0984c-0.2101,-0.6161 -1.1706,-0.3317 -0.9605,0.291c0.9338,2.7416 4.2989,5.1109 6.8936,2.7856c2.5213,-2.2576 0.5169,-5.7302 -2.0144,-6.8675c-0.5836,-0.2606 -1.0739,0.6262 -0.4869,0.8902z"/>
   <path id="svg_129" fill="#727272" d="m53.6476,71.6746c0.0901,1.7059 -0.3802,4.2444 -2.6413,3.9397c-1.0272,-0.1387 -1.8177,-1.0763 -1.771,-2.1391c0.0401,-0.9544 0.7037,-2.068 1.0673,-2.9412c0.2468,-0.5957 -0.6237,-1.0967 -0.8738,-0.4942c-0.5303,1.2794 -1.4508,2.772 -1.1106,4.2173c0.2768,1.1711 1.1873,2.1019 2.3546,2.3354c2.9782,0.5991 4.1021,-2.5182 3.9754,-4.9416c-0.0334,-0.6499 -1.0339,-0.6329 -1.0006,0.0237z"/>
   <path id="svg_130" fill="#727272" d="m50.1659,69.2715c-1.8643,0.7819 -4.7425,0.5822 -5.3928,-1.7905c-0.2835,-1.0425 0.0333,-2.2745 0.9972,-2.8397c0.9371,-0.5483 2.1478,-0.4028 3.1683,-0.2776c0.6303,0.0779 0.8838,-0.907 0.2468,-0.9849c-1.4141,-0.1726 -3.0183,-0.3249 -4.2356,0.5957c-1.0105,0.7649 -1.4207,2.1053 -1.2273,3.3407c0.5003,3.1917 4.1789,3.9939 6.7269,2.9277c0.5936,-0.2437 0.3135,-1.2219 -0.2835,-0.9714z"/>
   <path id="svg_131" fill="#727272" d="m49.5456,63.4939c-1.6843,-0.9139 -2.5647,-4.2715 -1.0873,-5.7235c1.941,-1.9056 4.3256,0.7954 5.4996,2.2576c0.4068,0.5043 1.0939,-0.2302 0.6937,-0.7311c-1.5342,-1.909 -4.8526,-4.8299 -7.1204,-2.0782c-1.6676,2.0274 -0.6704,5.9706 1.5274,7.1653c0.567,0.3081 1.0573,-0.5787 0.487,-0.8901z"/>
   <path id="svg_132" fill="#727272" d="m51.1531,70.9571c-0.7904,0.7717 -1.304,2.8601 -0.09,3.493c1.4541,0.7615 2.0977,-1.8277 2.2912,-2.7619c0.0867,-0.4265 -0.5603,-0.5923 -0.647,-0.1658c-0.0868,0.423 -0.1968,0.8394 -0.3502,1.2455c-0.0767,0.1997 -0.1601,0.3994 -0.2602,0.5889c-0.1534,0.2945 -0.2434,0.4841 -0.5969,0.4434c-0.9539,-0.1184 -0.3002,-1.9495 0.1367,-2.3726c0.3068,-0.3046 -0.1734,-0.7717 -0.4836,-0.4705z"/>
   <path id="svg_133" fill="#727272" d="m55.452,71.0044c-0.1701,0.9748 0.9171,1.7397 1.6942,2.0883c0.7871,0.3521 1.8843,0.4705 2.6214,-0.0812c0.7037,-0.528 0.5936,-1.4859 0.2901,-2.2169c-0.4135,-0.9951 -1.264,-1.6653 -2.2478,-2.0173c-0.4069,-0.1455 -0.567,0.5145 -0.1634,0.6566c0.5936,0.2133 1.1272,0.572 1.5041,1.0933c0.13,0.1827 0.2301,0.3757 0.3135,0.5855c0.1934,0.4942 0.2234,0.7176 -0.1201,1.1474c-0.2935,0.3656 -0.4469,0.4502 -0.8938,0.4536c-0.2801,0 -0.5703,-0.0576 -0.8338,-0.1523c-0.4035,-0.1456 -1.6208,-0.7887 -1.5174,-1.3844c0.0734,-0.4332 -0.5703,-0.6024 -0.647,-0.1726z"/>
   <path id="svg_134" fill="#727272" d="m59.3207,66.6248c0.8371,0.2133 1.6708,-0.1523 2.3745,-0.6024c0.5136,-0.3284 1.1907,-0.9274 1.1306,-1.6213c-0.05,-0.5788 -0.617,-0.8529 -1.1239,-0.9139c-0.8738,-0.1083 -1.7309,0.2742 -2.4413,0.7548c-0.3568,0.2403 -0.01,0.8225 0.3469,0.5788c0.3702,-0.2538 0.7637,-0.4772 1.2006,-0.5889c0.4036,-0.105 1.5775,-0.2742 1.2206,0.5754c-0.3134,0.7547 -1.8342,1.3403 -2.5446,1.1609c-0.4169,-0.1049 -0.5803,0.5517 -0.1634,0.6566z"/>
   <path id="svg_135" fill="#727272" d="m56.209,60.3056c-0.0534,-0.5144 0.0534,-1.0255 0.4202,-1.4046c0.2668,-0.2809 0.9138,-0.6532 1.294,-0.4366c0.3369,0.1929 0.3135,1.0052 0.3135,1.3809c-0.0033,0.5382 -0.1167,1.0493 -0.2935,1.5536c-0.1434,0.4095 0.5036,0.572 0.6471,0.1658c0.2868,-0.8191 0.3868,-1.6788 0.2501,-2.5419c-0.0934,-0.5923 -0.1934,-1.1812 -0.8505,-1.2692c-1.4541,-0.1997 -2.5846,1.1711 -2.4412,2.569c0.0366,0.4264 0.7037,0.4163 0.6603,-0.017z"/>
   <path id="svg_136" fill="#727272" d="m50.0158,62.5699c-0.517,-0.6601 -0.9605,-1.8582 -0.7871,-2.7078c0.1034,-0.5144 0.2235,-0.6634 0.7504,-0.7175c0.5269,-0.0542 0.657,0.1049 1.0372,0.4163c0.3869,0.3148 0.7637,0.6397 1.1473,0.9579c0.3301,0.2741 0.7937,-0.2099 0.4602,-0.4874c-0.9405,-0.7853 -2.4513,-2.5961 -3.6486,-1.2185c-0.9271,1.0695 -0.3035,3.1274 0.4703,4.1123c0.2635,0.3351 0.8371,-0.0135 0.5703,-0.3553z"/>
   <path id="svg_137" fill="#727272" d="m48.8185,65.2065c-1.3007,-0.528 -2.9983,0.6464 -2.7982,2.1289c0.1868,1.4047 2.418,1.9259 3.4218,1.1339c0.3335,-0.264 -0.01,-0.8462 -0.3468,-0.5788c-0.547,0.4332 -1.9077,0.3182 -2.3079,-0.3283c-0.587,-0.9376 0.8438,-2.1188 1.7109,-1.7634c0.3902,0.1591 0.717,-0.4299 0.3202,-0.5923z"/>
  </g>
 </g>
</svg>