<svg width="93" height="100" xmlns="http://www.w3.org/2000/svg">
 <defs>
  <clipPath id="clip0_10_475">
   <rect id="svg_1" x="19" y="45" fill="white" height="48" width="55"/>
  </clipPath>
  <clipPath id="clip1_10_475">
   <rect id="svg_2" x="16" y="0" fill="white" height="46" width="61"/>
  </clipPath>
 </defs>
 <g>
  <title>background</title>
  <rect fill="none" id="canvas_background" height="102" width="95" y="-1" x="-1"/>
 </g>
 <g>
  <title>Layer 1</title>
  <circle id="svg_5" fill-opacity="0.13" fill="#46A358" r="37" cy="58" cx="37"/>
  <g id="svg_6" clip-path="url(#clip0_10_475)">
   <path id="svg_7" fill="#727272" d="m28.1293,46.3569c12.573,1.6636 25.2625,1.9251 37.8938,0.78c0.8564,-0.0767 0.8654,-1.4292 0,-1.3525c-12.6313,1.1451 -25.3208,0.8836 -37.8938,-0.78c-0.852,-0.1127 -0.8475,1.2443 0,1.3525z"/>
   <path id="svg_8" fill="#727272" d="m31.0304,92.0306c5.4346,0.6943 10.905,1.0324 16.3843,0.9558c4.8203,-0.0676 10.5104,0.1442 15.0302,-1.7628c0.7847,-0.3336 0.4394,-1.641 -0.3587,-1.3029c-4.6364,1.9566 -10.5776,1.6906 -15.5369,1.7222c-5.1924,0.0361 -10.3713,-0.3066 -15.5234,-0.9648c-0.8519,-0.1082 -0.8474,1.2443 0.0045,1.3525z"/>
   <path id="svg_9" fill="#727272" d="m27.6047,45.3156c-6.2731,5.8518 -9.1966,14.5754 -8.5061,23.0826c0.3543,4.3956 1.5918,8.6695 3.4527,12.6548c1.6949,3.6337 4.1925,8.8408 7.941,10.7298c0.7713,0.3877 1.4528,-0.7754 0.6771,-1.1677c-3.4885,-1.7582 -5.8605,-6.821 -7.4568,-10.2428c-1.8563,-3.9899 -3.0715,-8.3224 -3.3226,-12.727c-0.4484,-7.9391 2.3227,-15.9234 8.1697,-21.3739c0.6368,-0.5906 -0.3183,-1.5464 -0.955,-0.9558z"/>
   <path id="svg_10" fill="#727272" d="m65.5478,46.952c6.6183,4.1702 7.2415,13.1643 7.0801,20.2469c-0.1793,7.8985 -1.1524,20.4136 -10.5417,22.7219c-0.8385,0.2073 -0.4843,1.5102 0.3587,1.3029c9.8019,-2.4075 11.2098,-14.8279 11.5058,-23.1863c0.2735,-7.8219 -0.417,-17.65 -7.7259,-22.253c-0.7353,-0.4599 -1.4079,0.7078 -0.677,1.1676z"/>
   <path id="svg_11" fill="#727272" d="m32.5774,46.3659c-4.9368,5.3424 -7.116,14.2643 -6.282,21.419c0.4843,4.1612 1.7936,8.2908 2.7666,12.3528c0.9775,4.071 1.9864,8.1104 4.2014,11.7036c0.4574,0.7393 1.6187,0.0586 1.1614,-0.6808c-2.0806,-3.3722 -3.0491,-7.1412 -3.9683,-10.9597c-0.8878,-3.6788 -1.9236,-7.3621 -2.6097,-11.0814c-1.3003,-7.0826 0.7354,-16.4418 5.6812,-21.7977c0.5874,-0.6402 -0.3632,-1.596 -0.9506,-0.9558z"/>
   <path id="svg_12" fill="#727272" d="m39.2405,46.9296c-3.6768,6.51 -5.6094,13.9036 -5.5108,21.3964c0.0494,3.5977 0.5605,7.1998 1.538,10.6622c1.2152,4.2964 3.0626,8.3719 3.8697,12.7856c0.1569,0.8565 1.4528,0.4914 1.2958,-0.3607c-0.704,-3.8636 -2.1971,-7.4613 -3.3854,-11.1851c-1.1523,-3.6157 -1.8429,-7.3441 -1.9594,-11.1446c-0.2332,-7.5153 1.6232,-14.9405 5.3134,-21.4731c0.4305,-0.7574 -0.7309,-1.4381 -1.1613,-0.6807z"/>
   <path id="svg_13" fill="#727272" d="m43.2043,48.2234c1.2779,7.5109 -0.2735,15.0352 -0.1435,22.5777c0.0583,3.4443 0.825,6.6497 1.2734,10.04c0.4664,3.521 -0.3318,7.1411 -0.7667,10.6351c-0.1076,0.8611 1.2376,0.852 1.3452,0c0.4394,-3.5255 1.2331,-7.1728 0.7667,-10.7253c-0.4753,-3.6337 -1.2779,-7.0781 -1.2824,-10.7749c-0.009,-7.3981 1.3542,-14.7421 0.1031,-22.1087c-0.1479,-0.8566 -1.4438,-0.4959 -1.2958,0.3561z"/>
   <path id="svg_14" fill="#727272" d="m48.2487,47.5968c2.3631,6.785 2.65,13.9442 2.8877,21.0628c0.2601,7.7318 -0.1256,15.3418 -1.5604,22.9518c-0.1614,0.8521 1.1344,1.2173 1.2958,0.3607c1.4573,-7.7273 1.8743,-15.4635 1.6098,-23.3125c-0.2422,-7.2358 -0.5381,-14.5303 -2.937,-21.4235c-0.2825,-0.8115 -1.5828,-0.4599 -1.2959,0.3607z"/>
   <path id="svg_15" fill="#727272" d="m53.9075,47.6284c0.4977,1.5283 1.5738,2.5472 2.3989,3.8906c0.9416,1.5329 1.4573,3.2686 1.7353,5.0358c0.6053,3.8591 0.3183,7.8986 0.3094,11.7893c-0.009,4.2333 0.3138,8.71 -0.7758,12.8441c-0.9595,3.6292 -3.1611,6.758 -3.8965,10.4638c-0.1704,0.8521 1.1255,1.2128 1.2959,0.3607c0.7891,-3.9673 3.2284,-7.326 4.0893,-11.2753c0.8833,-4.0394 0.6233,-8.2863 0.6322,-12.3933c0.009,-3.796 0.2377,-7.6777 -0.26,-11.4512c-0.2197,-1.668 -0.5964,-3.3181 -1.3138,-4.8419c-0.7982,-1.6996 -2.3362,-2.9935 -2.9146,-4.7788c-0.2735,-0.825 -1.5738,-0.4734 -1.3003,0.3562z"/>
   <path id="svg_16" fill="#727272" d="m60.4495,47.4163c2.6724,2.5247 3.9593,6.5551 4.9234,10.0355c1.0044,3.6247 0.6681,7.4929 0.4439,11.2032c-0.4529,7.5289 -1.7174,15.0488 -5.309,21.7571c-0.4125,0.7664 0.7488,1.4517 1.1614,0.6808c3.8292,-7.1547 5.1072,-15.1975 5.5331,-23.2223c0.2153,-4.0395 0.3901,-7.9843 -0.8699,-11.8749c-1.094,-3.3768 -2.3002,-7.0465 -4.9323,-9.5396c-0.6277,-0.5906 -1.5828,0.3651 -0.9506,0.9602z"/>
   <path id="svg_17" fill="#727272" d="m32.4697,50.7977c-0.139,0.3561 -0.2914,0.7078 -0.4573,1.0549c-0.2108,0.4373 0.0358,1.0369 0.5829,1.0189c0.3901,-0.0135 0.6995,-0.1893 0.9775,-0.4553c0.0897,-0.0857 0.1793,-0.1759 0.2645,-0.2615c0.1121,-0.1127 -0.0358,0.0676 0.0494,-0.0361c-0.018,0.0271 -0.1121,0.0181 -0.0269,0.0271c-0.2153,-0.2841 -0.4305,-0.5726 -0.6502,-0.8566c-0.0583,0.302 -0.1211,0.6041 -0.1794,0.9107c-0.0717,0.3561 0.1032,0.7303 0.4708,0.834c0.3319,0.0902 0.7578,-0.1127 0.8296,-0.4734c0.0583,-0.302 0.121,-0.6041 0.1793,-0.9106c0.0897,-0.4599 -0.1928,-0.8115 -0.6501,-0.8566c-0.3722,-0.0361 -0.7085,0.1623 -0.9731,0.4057c-0.0941,0.0857 -0.1748,0.1758 -0.269,0.2615c-0.0314,0.0271 -0.0583,0.0541 -0.0897,0.0812c0.0135,-0.0136 0.0269,-0.0226 0.0404,-0.0361c-0.0673,0.0361 -0.0673,0.0406 0.009,0.009c-0.0763,0.018 -0.0718,0.0225 0.0134,0c0.1928,0.3381 0.3856,0.6763 0.5829,1.0189c0.2152,-0.4508 0.4125,-0.9107 0.5919,-1.3751c0.13,-0.3426 -0.1435,-0.7438 -0.4708,-0.834c-0.3767,-0.1037 -0.6905,0.1308 -0.8251,0.4734z"/>
   <path id="svg_18" fill="#727272" d="m29.1382,58.8902c-0.0628,0.3787 -0.1255,0.7574 -0.1883,1.1315c-0.0493,0.3021 0.0314,0.5996 0.3094,0.7619c0.2466,0.1443 0.6188,0.1173 0.8161,-0.1036c0.13,-0.1488 0.26,-0.2976 0.3901,-0.4464c0.0851,-0.0991 0.2062,-0.284 0.3093,-0.3381c-0.1121,0.0316 -0.2242,0.0631 -0.3407,0.0902c0.0224,-0.0045 0.0493,-0.0045 0.0717,-0.009c-0.1121,-0.0316 -0.2242,-0.0632 -0.3408,-0.0902c0.018,0.0135 0.0359,0.027 0.0538,0.0406c-0.1121,-0.1939 -0.2242,-0.3877 -0.3318,-0.5861c0.0359,0.3877 -0.0717,0.8205 -0.1166,1.2127c-0.0627,0.5636 0.6054,0.7709 1.0134,0.5861c0.5291,-0.248 0.8834,-0.7033 1.0717,-1.2488c-0.3767,0.0992 -0.7488,0.1984 -1.1255,0.2976c-0.0134,-0.0857 -0.0269,-0.1714 -0.0403,-0.257c-0.2198,0.843 1.0806,1.2037 1.2958,0.3606c0.0987,-0.3832 0.009,-0.8024 -0.3049,-1.0594c-0.4036,-0.3291 -0.9461,-0.2119 -1.1255,0.2975c-0.0807,0.2255 -0.2466,0.3427 -0.4528,0.4419c0.3363,0.1938 0.6725,0.3877 1.0133,0.586c0.0673,-0.6041 0.3901,-1.6771 -0.4349,-1.907c-0.695,-0.1938 -1.1838,0.6357 -1.5604,1.073c0.3766,0.2209 0.7488,0.4373 1.1254,0.6582c0.0628,-0.3787 0.1256,-0.7574 0.1884,-1.1316c0.0583,-0.3606 -0.0942,-0.7303 -0.4708,-0.834c-0.3184,-0.0857 -0.7668,0.1127 -0.8251,0.4734z"/>
   <path id="svg_19" fill="#727272" d="m28.5597,67.0366c0.0449,0.532 0.0942,1.0639 0.139,1.5914c0.0673,0.7529 1.0762,0.9287 1.3228,0.1803c0.1345,-0.4147 0.3228,-0.7889 0.5605,-1.1586c-0.408,-0.0541 -0.8206,-0.1082 -1.2286,-0.1623c0.1569,0.3922 0.2645,0.7935 0.3228,1.2173c0.0673,0.4778 0.6457,0.559 0.9865,0.4057c0.1704,-0.0766 0.3094,-0.2254 0.3991,-0.3877c0.0403,-0.0721 0.0717,-0.1578 0.0986,-0.2344c0.0135,-0.0406 0.0224,-0.0812 0.0359,-0.1218c0.0224,-0.0676 0.0134,-0.0631 -0.0179,0.0136c-0.0987,0.0586 -0.1973,0.1172 -0.296,0.1758c0.0224,-0.009 0.0493,-0.0135 0.0718,-0.0226c-0.1211,0 -0.2377,0 -0.3588,0c-0.0089,-0.0045 -0.0179,-0.009 -0.0224,-0.018c-0.0807,-0.0811 -0.1614,-0.1623 -0.2421,-0.2434c0.0134,0.018 0.0224,0.036 0.0359,0.0541c-0.0225,-0.1759 -0.0449,-0.3472 -0.0673,-0.523c-0.0045,0.0225 -0.0045,0.0451 -0.009,0.0631c-0.0493,0.3607 0.0852,0.7258 0.4709,0.834c0.3138,0.0857 0.7802,-0.1082 0.8295,-0.4733c0.0403,-0.2931 0.0179,-0.5591 -0.1973,-0.78c-0.1794,-0.1803 -0.4529,-0.266 -0.704,-0.2389c-0.2601,0.0315 -0.4887,0.1848 -0.6277,0.4057c-0.0583,0.0947 -0.139,0.2255 -0.1435,0.3337c-0.0045,0.1577 -0.0718,0.045 0.0717,-0.0181c0.3273,0.1353 0.6592,0.2705 0.9865,0.4058c-0.0583,-0.4193 -0.1659,-0.8205 -0.3229,-1.2173c-0.2152,-0.532 -0.8967,-0.6852 -1.2286,-0.1623c-0.2959,0.4644 -0.5246,0.9603 -0.695,1.4788c0.4395,0.0586 0.8789,0.1217 1.3228,0.1803c-0.0448,-0.532 -0.0942,-1.064 -0.139,-1.5915c-0.0314,-0.3651 -0.287,-0.6762 -0.6726,-0.6762c-0.3453,0.0135 -0.7129,0.3246 -0.6816,0.6898z"/>
   <path id="svg_20" fill="#727272" d="m30.1784,76.5762c0.0449,0.7799 0.435,1.4607 1.1121,1.8574c0.4484,0.257 1.0044,-0.0721 1.0133,-0.5861c0.0045,-0.3967 0.0942,-0.7619 0.2467,-1.1271c-0.3767,0.0992 -0.7489,0.1984 -1.1255,0.2976c0.1838,0.2254 0.3811,0.4238 0.6008,0.6086c0.3587,0.3021 1.0134,0.2435 1.1255,-0.2975c0.0269,-0.1218 0.0583,-0.2255 0.0986,-0.3382c-0.3766,0.0992 -0.7488,0.1984 -1.1254,0.2976c0.0403,-0.0226 0.0628,0.0045 0.0583,0.0766c0.1435,0.3382 0.6367,0.4103 0.9192,0.2435c0.3452,-0.2029 0.3856,-0.5861 0.2421,-0.9242c-0.0583,-0.1353 -0.1524,-0.257 -0.269,-0.3517c-0.417,-0.3291 -0.9282,-0.2074 -1.1255,0.2976c-0.0448,0.1127 -0.0762,0.2209 -0.0986,0.3381c0.3766,-0.0992 0.7488,-0.1984 1.1254,-0.2976c-0.2197,-0.1848 -0.417,-0.3877 -0.6008,-0.6086c-0.3587,-0.4418 -0.9506,-0.1127 -1.1255,0.2976c-0.1973,0.4733 -0.287,0.9738 -0.2959,1.4877c0.3363,-0.1938 0.6726,-0.3877 1.0133,-0.5861c-0.26,-0.1487 -0.4304,-0.3832 -0.4484,-0.6897c-0.0448,-0.8566 -1.39,-0.8656 -1.3407,0.0045z"/>
   <path id="svg_21" fill="#727272" d="m32.9496,85.8498c0.1569,0.4057 0.3452,0.7799 0.6008,1.1361c0.3991,0.55 1.1927,0.3471 1.2555,-0.3426c0.0045,-0.0406 0.0762,-0.541 0.0493,-0.5636c-0.1928,0.1217 -0.3811,0.2435 -0.5739,0.3652c0.0448,0.0631 0.0852,0.1217 0.1345,0.1803c0.1704,0.2164 0.3811,0.4013 0.6547,0.4779c0.2107,0.0541 0.4573,0.0271 0.6412,-0.0902c0.121,-0.0811 0.2062,-0.1758 0.269,-0.3065c0.0224,-0.0541 0.0448,-0.1082 0.0673,-0.1623c0.1031,-0.3246 -0.0942,-0.3787 -0.5874,-0.1623c0.269,0.8205 1.5693,0.4688 1.2958,-0.3607c-0.1883,-0.568 -0.7353,-0.9377 -1.3317,-0.7123c-0.2421,0.0947 -0.4529,0.275 -0.5695,0.5094c-0.0358,0.0722 -0.1659,0.3832 -0.121,0.4734c0.26,-0.1488 0.5156,-0.302 0.7757,-0.4508c-0.0359,-0.0451 -0.0718,-0.0857 -0.1031,-0.1308c-0.2153,-0.4373 -0.8385,-0.6852 -1.2869,-0.5229c-0.6323,0.2254 -0.6054,0.9016 -0.6547,1.4607c0.417,-0.1127 0.834,-0.2254 1.2555,-0.3427c-0.1838,-0.2524 -0.3497,-0.5184 -0.4663,-0.8115c-0.3229,-0.8024 -1.6232,-0.4553 -1.3048,0.3562z"/>
   <path id="svg_22" fill="#727272" d="m40.1373,50.9824c-0.4842,0.3652 -0.8878,0.798 -1.1523,1.3525c-0.3453,0.7214 0.4573,1.2894 1.0582,0.8206c0.1435,-0.1128 0.2869,-0.2255 0.4304,-0.3382c0.0628,-0.0496 0.1256,-0.0992 0.1928,-0.1487c0.0314,-0.0271 0.0628,-0.0496 0.0942,-0.0767c0.1121,-0.0811 0.0538,-0.0676 -0.1749,0.0361c-0.1121,-0.0316 -0.2242,-0.0631 -0.3408,-0.0902c0.0135,0.009 0.0269,0.018 0.0404,0.0271c-0.0807,-0.0812 -0.1614,-0.1623 -0.2421,-0.2435c-0.0135,-0.0586 -0.0314,-0.1127 -0.0449,-0.1713c0.0045,-0.0631 0.0045,-0.0721 -0.0089,-0.018c-0.0314,0.0225 -0.0404,0.1758 -0.0404,0.1983c-0.0314,0.2074 -0.0134,0.4103 0.0942,0.5996c0.0986,0.1714 0.2735,0.3246 0.4663,0.3742c0.0807,0.0226 0.1838,0.0316 0.269,0.0316c0.0807,0 0.1525,-0.0135 0.2242,-0.0406c0.0942,-0.027 0.0628,-0.0361 -0.0986,-0.027c-0.0987,-0.0586 -0.1973,-0.1173 -0.296,-0.1759c0.0135,0.0136 0.0269,0.0271 0.0404,0.0406c-0.0583,-0.0992 -0.1166,-0.1984 -0.1749,-0.2975c0.0045,0.0135 0.009,0.0315 0.0135,0.045c0.0224,-0.1758 0.0448,-0.3471 0.0672,-0.5229c-0.0089,0.0135 -0.0134,0.027 -0.0224,0.0406c-0.408,0.7664 0.7533,1.4516 1.1614,0.6807c0.1748,-0.3246 0.1345,-0.6898 -0.139,-0.9467c-0.1435,-0.1353 -0.3363,-0.2164 -0.5336,-0.2209c-0.1121,-0.0046 -0.2422,0.0676 -0.3408,0.0586c0.1121,0.0315 0.2242,0.0631 0.3408,0.0901c-0.018,-0.0135 -0.0359,-0.027 -0.0494,-0.036c0.0808,0.0811 0.1615,0.1623 0.2422,0.2434c-0.009,-0.018 -0.018,-0.0361 -0.0269,-0.0541c0.0314,0.1127 0.0627,0.2254 0.0896,0.3426c-0.0089,-0.0856 0.0045,-0.0405 0.0359,-0.1668c0.0359,-0.1578 0.0404,-0.3291 0.0045,-0.4914c-0.0762,-0.3246 -0.3184,-0.559 -0.6412,-0.6176c-0.3363,-0.0631 -0.565,0.1127 -0.8206,0.3111c-0.2555,0.1983 -0.5111,0.4012 -0.7667,0.5996c0.3542,0.275 0.704,0.5455 1.0582,0.8205c0.1614,-0.3336 0.3677,-0.6402 0.6681,-0.8656c0.2915,-0.2164 0.4394,-0.5861 0.2421,-0.9242c-0.1659,-0.284 -0.6232,-0.4554 -0.9192,-0.239z"/>
   <path id="svg_23" fill="#727272" d="m37.5052,58.5926c-0.1121,0.541 -0.2197,1.082 -0.3318,1.6275c-0.139,0.6898 0.6054,1.0865 1.1255,0.6582c0.1524,-0.1262 0.287,-0.284 0.3856,-0.4553c0.0673,-0.1173 0.148,-0.3562 0.1839,-0.4148c-0.0808,0.0811 -0.1615,0.1623 -0.2422,0.2434c0.0224,-0.0135 0.0404,-0.027 0.0628,-0.045c-0.1121,0.0315 -0.2242,0.0631 -0.3408,0.0901c0.0269,-0.0045 0.0538,-0.0045 0.0807,-0.009c-0.1121,-0.0316 -0.2242,-0.0631 -0.3408,-0.0902c-0.1076,-0.0496 -0.1121,-0.2254 -0.0807,0.0045c0.009,0.0587 0.0225,0.1082 0.0404,0.1623c0.0628,0.2029 0.1749,0.3833 0.3453,0.5095c0.1569,0.1172 0.3407,0.1803 0.538,0.1758c0.1211,-0.0045 0.2332,-0.0361 0.3408,-0.0902c0.0583,-0.0225 0.1076,-0.0541 0.1525,-0.0946c0.1165,-0.0812 0.0852,-0.0767 -0.0897,0.0045c-0.1121,-0.0316 -0.2242,-0.0631 -0.3408,-0.0902c0.0179,0.009 0.0224,0.018 0.0359,0.0541c0.2869,0.816 1.5873,0.4644 1.2958,-0.3607c-0.1255,-0.3561 -0.3094,-0.6852 -0.6546,-0.861c-0.1794,-0.0947 -0.4036,-0.1218 -0.6009,-0.0767c-0.1973,0.0451 -0.3138,0.1758 -0.4842,0.257c0.1121,-0.0316 0.2242,-0.0631 0.3407,-0.0902c-0.0224,0 -0.0493,0 -0.0717,0c0.1121,0.0316 0.2242,0.0631 0.3408,0.0902c0.121,0.2119 0.1569,0.2434 0.1076,0.0947c-0.009,-0.0586 -0.0179,-0.1172 -0.0269,-0.1759c-0.0314,-0.1172 -0.0807,-0.2389 -0.1435,-0.3381c-0.1659,-0.2615 -0.4394,-0.4328 -0.7488,-0.4283c-0.3049,0.0045 -0.5829,0.1804 -0.7264,0.4464c-0.1211,0.2254 -0.1121,0.3606 -0.3184,0.5319c0.3767,0.2209 0.7488,0.4373 1.1255,0.6582c0.1121,-0.541 0.2197,-1.0819 0.3318,-1.6229c0.1794,-0.8566 -1.1165,-1.2173 -1.2914,-0.3652z"/>
   <path id="svg_24" fill="#727272" d="m36.9851,65.5038c-0.139,0.7258 -0.2287,1.4562 -0.2511,2.191c-0.018,0.514 0.5829,0.8386 1.0133,0.5861c0.1973,-0.1172 0.3408,-0.275 0.4484,-0.4779c0.0404,-0.0766 0.157,-0.2524 0.1346,-0.3201c-0.0045,-0.009 -0.0449,0.0496 -0.0269,0.0406c-0.1121,0.0316 -0.2242,0.0631 -0.3408,0.0902c-0.009,0.0045 -0.0224,0.0045 -0.0314,0.009c-0.0807,-0.0811 -0.1614,-0.1623 -0.2421,-0.2434c0.0762,0.0991 0.0672,0.0901 0.0762,0.1938c0.0493,0.5545 0.7129,0.9242 1.1479,0.4779c0.0493,-0.0541 0.0986,-0.1037 0.1524,-0.1533c-0.0941,0.0451 -0.1928,0.0361 -0.2869,-0.018c-0.0583,-0.0992 -0.1166,-0.1984 -0.1749,-0.2976c0.0089,0.0271 0.0179,0.0541 0.0314,0.0812c0.1255,0.3426 0.4573,0.577 0.8295,0.4734c0.3273,-0.0902 0.5964,-0.4869 0.4708,-0.8341c-0.3497,-0.9557 -1.3676,-0.834 -1.9729,-0.2074c0.3811,0.1578 0.7667,0.3201 1.1479,0.4779c-0.0538,-0.6537 -0.3767,-1.3615 -1.1479,-1.3119c-0.3139,0.018 -0.5919,0.2029 -0.7578,0.4689c-0.0583,0.0946 -0.0987,0.2028 -0.1435,0.3065c-0.0493,0.1127 -0.1345,0.1533 0.0045,0.0722c0.3363,0.1938 0.6726,0.3877 1.0134,0.586c0.0179,-0.6176 0.0852,-1.2262 0.2017,-1.8348c0.1659,-0.8476 -1.1299,-1.2083 -1.2958,-0.3562z"/>
   <path id="svg_25" fill="#727272" d="m37.6532,73.2266c0.1524,0.6041 0.3363,1.1947 0.5515,1.7763c0.1749,0.4733 0.7354,0.6717 1.1255,0.2975c0.1704,-0.1668 0.2869,-0.3606 0.3452,-0.5951c0.0225,-0.0947 0.0404,-0.2074 0.0449,-0.302c0.0134,-0.2886 -0.018,-0.0496 0.0089,-0.0631c-0.1121,0.0315 -0.2242,0.0631 -0.3407,0.0901c0.0313,0 0.0583,-0.0045 0.0896,-0.0045c-0.1121,-0.0316 -0.2242,-0.0631 -0.3407,-0.0902c-0.0897,-0.0405 -0.0628,-0.0811 0.0089,0.0451c0.0359,0.0631 0.0673,0.1172 0.1121,0.1758c0.139,0.1804 0.3094,0.3021 0.5381,0.3337c0.2018,0.027 0.3946,-0.0226 0.565,-0.1398c0.0941,-0.0676 0.1793,-0.1443 0.2421,-0.2434c0.0269,-0.0541 0.0538,-0.1082 0.0762,-0.1623c0.0897,-0.1759 0.0135,-0.1308 -0.2286,0.1397c-0.1211,0 -0.2377,0 -0.3588,0c-0.0538,-0.0451 -0.1031,-0.0947 -0.1569,-0.1397c-0.0314,-0.1128 -0.0628,-0.2255 -0.0897,-0.3427c0,0.0271 0,0.0541 0,0.0812c-0.0134,0.8701 1.3318,0.8701 1.3452,0c0.009,-0.4554 -0.3049,-0.8115 -0.7398,-0.9017c-0.2332,-0.0496 -0.4664,0 -0.6592,0.1398c-0.0941,0.0676 -0.1704,0.1442 -0.2331,0.2389c-0.0135,0.0271 -0.027,0.0586 -0.0449,0.0857c-0.1166,0.2254 -0.0852,0.2209 0.0987,-0.0136c0.1121,-0.0315 0.2242,-0.0631 0.3407,-0.0901c-0.0224,0.0045 -0.0448,0.0045 -0.0672,0.009c0.1121,0.0316 0.2242,0.0631 0.3408,0.0902c0.1928,0.0946 0.0941,0.0631 0.0224,-0.0632c-0.0538,-0.0991 -0.1256,-0.1938 -0.2063,-0.2659c-0.2556,-0.23 -0.5919,-0.2886 -0.9102,-0.1759c-0.2556,0.0902 -0.4484,0.2886 -0.5785,0.5185c-0.0717,0.1307 -0.1076,0.2615 -0.1345,0.4057c-0.0134,0.0631 0,0.2435 -0.0403,0.2841c0.3766,0.0991 0.7488,0.1983 1.1254,0.2975c-0.2152,-0.5816 -0.399,-1.1767 -0.5515,-1.7763c-0.2197,-0.8385 -1.5156,-0.4824 -1.3003,0.3607z"/>
   <path id="svg_26" fill="#727272" d="m38.3302,79.687c0.2422,0.7168 0.5516,1.4066 0.9327,2.0558c0.2735,0.4644 0.8789,0.4103 1.1613,0c0.0763,-0.1127 0.1301,-0.2299 0.1659,-0.3607c0.0045,-0.0405 0.009,-0.0766 0.018,-0.1172c0.0717,-0.2615 0.0089,-0.2524 -0.1973,0.0316c-0.1211,0 -0.2377,0 -0.3587,0c-0.1884,-0.0586 -0.1032,-0.0451 -0.0045,0.0631c0.0717,0.0766 0.1614,0.1578 0.2556,0.2119c0.1928,0.1082 0.4215,0.1488 0.6412,0.1307c0.5022,-0.036 0.8474,-0.3696 1.0133,-0.825c0.3005,-0.816 -0.9999,-1.1721 -1.2958,-0.3607c0.0852,-0.2254 0.2959,-0.0991 0.2601,-0.2073c-0.0269,-0.0767 -0.1839,-0.1804 -0.2556,-0.2209c-0.2197,-0.1263 -0.4843,-0.1533 -0.7219,-0.0722c-0.2198,0.0722 -0.3946,0.239 -0.5067,0.4418c-0.0987,0.1804 -0.0718,0.4509 -0.1794,0.6042c0.3856,0 0.7757,0 1.1614,0c-0.3274,-0.5546 -0.5919,-1.1226 -0.7982,-1.7312c-0.269,-0.8206 -1.5694,-0.4689 -1.2914,0.3561z"/>
   <path id="svg_27" fill="#727272" d="m40.1014,87.4007c0.0045,0.3742 0.0583,0.7483 0.1749,1.1c0.0852,0.257 0.287,0.4463 0.5605,0.4824c0.2466,0.0315 0.556,-0.0812 0.6681,-0.3246c0.0762,-0.1623 0.1525,-0.3246 0.2287,-0.4824c0.0359,-0.0766 0.0717,-0.1488 0.1031,-0.2254c0.0179,-0.0361 0.0359,-0.0767 0.0538,-0.1127c0.0359,-0.0677 0.0359,-0.0677 0,0c-0.0986,0.0586 -0.1973,0.1172 -0.2959,0.1758c0.0134,-0.0045 0.0314,-0.0135 0.0448,-0.018c-0.121,0 -0.2376,0 -0.3587,0c-0.0224,-0.0091 -0.0493,-0.0226 -0.0717,-0.0316c-0.0808,-0.0811 -0.1615,-0.1623 -0.2422,-0.2434c-0.0672,-0.1128 -0.0045,-0.0181 0.0224,0.0586c0.0225,0.0721 0.0494,0.1397 0.0718,0.2119c0.0493,0.1397 0.0986,0.284 0.1435,0.4237c0.1166,0.3472 0.4618,0.5726 0.8295,0.4734c0.3318,-0.0902 0.5874,-0.4869 0.4708,-0.834c-0.1928,-0.5591 -0.3542,-1.4788 -1.1344,-1.3751c-0.6054,0.0812 -0.8071,0.8205 -1.0313,1.2984c0.408,0.0541 0.8205,0.1082 1.2286,0.1623c-0.0852,-0.266 -0.1256,-0.4824 -0.1301,-0.7438c-0.0044,-0.3517 -0.3049,-0.6943 -0.6725,-0.6763c-0.3543,0.018 -0.6682,0.3021 -0.6637,0.6808z"/>
   <path id="svg_28" fill="#727272" d="m46.2803,88.2211c-0.0359,0.3066 -0.0718,0.6177 -0.1076,0.9242c-0.0359,0.2886 0.2331,0.5816 0.4932,0.6537c0.3049,0.0857 0.5874,-0.0631 0.7578,-0.311c0.1211,-0.1759 0.2421,-0.3472 0.3632,-0.523c0.0538,-0.0812 0.1121,-0.1578 0.1659,-0.2389c0.0224,-0.0316 0.0448,-0.0632 0.0672,-0.0947c0.0987,-0.1353 0.0852,-0.1263 -0.0358,0.027c-0.1121,0.0316 -0.2242,0.0631 -0.3408,0.0902c0.0224,0 0.0404,0 0.0628,0c-0.1121,-0.0316 -0.2242,-0.0631 -0.3408,-0.0902c-0.1345,-0.2344 -0.1794,-0.2795 -0.1345,-0.1352c0.0134,0.0541 0.0224,0.1127 0.0358,0.1668c0.0225,0.1127 0.0449,0.2209 0.0718,0.3336c0.0493,0.2344 0.0717,0.5094 0.1928,0.7213c0.1166,0.1984 0.3094,0.3697 0.5336,0.4328c0.3453,0.0947 0.6277,-0.0811 0.8295,-0.3516c0.2197,-0.2931 0.0449,-0.7574 -0.2421,-0.9242c-0.3453,-0.2029 -0.6995,-0.0496 -0.9192,0.2434c-0.009,0.0136 -0.018,0.0271 -0.0269,0.0361c0.1928,-0.1127 0.3856,-0.2254 0.5829,-0.3336c-0.0135,0 -0.0269,0.0045 -0.0404,0.0045c0.1121,0.0315 0.2242,0.0631 0.3408,0.0902c0.1166,0.0586 0.1883,0.3877 0.1211,0.0541c-0.018,-0.0947 -0.0404,-0.1849 -0.0583,-0.2796c-0.0359,-0.1668 -0.0673,-0.3336 -0.1031,-0.5004c-0.0808,-0.3516 -0.2915,-0.6943 -0.6592,-0.798c-0.408,-0.1127 -0.7309,0.1218 -0.9595,0.4283c-0.2287,0.3111 -0.444,0.6312 -0.6637,0.9468c0.417,0.1127 0.834,0.2254 1.2555,0.3426c0.0359,-0.3066 0.0718,-0.6176 0.1076,-0.9242c0.0404,-0.3652 -0.3407,-0.6762 -0.6725,-0.6762c-0.3991,0.009 -0.6323,0.3246 -0.6771,0.6852z"/>
   <path id="svg_29" fill="#727272" d="m46.926,75.8729c-0.166,0.7213 -0.2467,1.4607 -0.2332,2.2001c0.009,0.6356 0.9416,0.9647 1.2555,0.3426c0.1345,-0.2705 0.269,-0.5365 0.4035,-0.807c0.0987,-0.1984 0.1704,-0.4463 0.3498,-0.5861c-0.0987,0.0586 -0.1973,0.1172 -0.2959,0.1759c0,-0.0046 0,-0.0091 0.0044,-0.0136c-0.2152,-0.1668 -0.4304,-0.3291 -0.6501,-0.4959c0.0852,0.3201 0.1704,0.6402 0.2556,0.9603c0.1076,0.4012 0.6232,0.6447 0.9864,0.4057c0.0628,-0.0405 0.1256,-0.0856 0.1883,-0.1262c0.7175,-0.4779 0.0449,-1.65 -0.677,-1.1677c-0.0628,0.0406 -0.1256,0.0857 -0.1884,0.1263c0.3274,0.1352 0.6592,0.2705 0.9865,0.4057c-0.0852,-0.3201 -0.1704,-0.6402 -0.2556,-0.9602c-0.0762,-0.2841 -0.3542,-0.5005 -0.6501,-0.496c-0.9462,0.0181 -1.269,1.1993 -1.6187,1.9026c0.417,0.1127 0.834,0.2254 1.2555,0.3426c-0.009,-0.6267 0.0448,-1.2308 0.1838,-1.8439c0.1883,-0.8521 -1.1075,-1.2128 -1.3003,-0.3652z"/>
   <path id="svg_30" fill="#727272" d="m45.6436,65.7562c0.0314,0.5319 0.0583,1.0594 0.0897,1.5914c0.0358,0.6672 0.8878,0.9242 1.2555,0.3426c0.26,-0.4147 0.5201,-0.825 0.7802,-1.2398c-0.3856,0 -0.7757,0 -1.1614,0c0.0942,0.1623 0.1525,0.3111 0.1615,0.5005c0.0314,0.5951 0.7084,0.8791 1.1479,0.4778c0.3407,-0.3065 0.5604,-0.6762 0.7264,-1.1045c-0.3274,0.1353 -0.6592,0.2705 -0.9865,0.4058c0,0.009 0,0.018 -0.0045,0.0225c-0.0583,-0.0992 -0.1166,-0.1984 -0.1749,-0.2975c0.0135,0.027 0.0224,0.0586 0.0359,0.0856c0.139,0.3381 0.4439,0.5771 0.8295,0.4734c0.3139,-0.0857 0.6098,-0.4914 0.4708,-0.8341c-0.1165,-0.275 -0.2376,-0.4418 -0.4797,-0.6221c-0.3812,-0.284 -0.8475,0.0406 -0.9865,0.4057c-0.0807,0.2074 -0.2197,0.3607 -0.3811,0.5095c0.3811,0.1578 0.7667,0.3201 1.1478,0.4779c-0.0224,-0.4238 -0.13,-0.816 -0.3452,-1.1812c-0.2646,-0.4463 -0.8923,-0.4283 -1.1614,0c-0.26,0.4148 -0.5201,0.825 -0.7802,1.2398c0.417,0.1127 0.8341,0.2254 1.2555,0.3426c-0.0313,-0.532 -0.0582,-1.0594 -0.0896,-1.5914c-0.0538,-0.8701 -1.399,-0.8746 -1.3497,-0.0045z"/>
   <path id="svg_31" fill="#727272" d="m46.0068,56.8163c-0.0404,0.3426 -0.0583,0.6853 -0.0493,1.0279c0.0134,0.4689 0.5784,0.9017 1.0133,0.5861c0.2242,-0.1623 0.3632,-0.3472 0.4395,-0.6132c0.0179,-0.0631 0.0358,-0.1352 0.0448,-0.1983c0.009,-0.0586 0.0448,-0.0631 -0.0045,-0.0181c-0.2331,0.2164 -0.4798,0.5275 -0.8519,0.0767c0.0403,0.0496 0.0269,0.0451 0,-0.0135c0.0314,0.0676 0.0538,0.1442 0.0852,0.2118c0.0538,0.1173 0.1345,0.221 0.2242,0.3111c0.278,0.275 0.6905,0.3291 1.0268,0.1353c0.3183,-0.1804 0.4215,-0.6132 0.2421,-0.9242c-0.1883,-0.3201 -0.6008,-0.4238 -0.9192,-0.2435c-0.0134,0.009 -0.0314,0.0181 -0.0448,0.0271c0.1121,-0.0316 0.2242,-0.0631 0.3407,-0.0902c0.0359,-0.0045 0.3588,0.1758 0.3319,0.1848c0.0179,0.0361 0.0179,0.0361 0.0044,0.0046c-0.0134,-0.0361 -0.0269,-0.0722 -0.0448,-0.1082c-0.0538,-0.1308 -0.1166,-0.2525 -0.2152,-0.3607c-0.2197,-0.2299 -0.5605,-0.3426 -0.8699,-0.2435c-0.2915,0.0902 -0.4843,0.3246 -0.5784,0.6087c-0.0225,0.0631 -0.0314,0.1262 -0.0494,0.1938c-0.0089,0.0316 -0.0179,0.0586 -0.0224,0.0902c-0.0179,0.0586 -0.0179,0.0586 0.0045,0c0.0269,-0.0857 0.0852,-0.1533 0.1749,-0.1984c0.3363,0.1939 0.6726,0.3877 1.0133,0.5861c-0.0089,-0.3426 0.009,-0.6853 0.0494,-1.0279c0.0448,-0.3516 -0.3408,-0.6898 -0.6726,-0.6762c-0.3991,0.018 -0.6233,0.2975 -0.6726,0.6717z"/>
   <path id="svg_32" fill="#727272" d="m45.5943,49.8824c-0.1256,0.4959 -0.0628,1.0054 0.2017,1.4427c0.3139,0.532 1.0358,0.3697 1.2286,-0.1623c0.0718,-0.1984 -0.0358,0.1217 0.0314,-0.0812c0.0269,-0.0766 0.0494,-0.0405 -0.0179,-0.009c-0.2063,0.1082 -0.4843,0.0361 -0.547,-0.2344c0.0852,0.3561 0.4842,0.568 0.8295,0.4734c0.3587,-0.0992 0.556,-0.4734 0.4708,-0.8341c-0.1211,-0.5139 -0.6771,-0.7889 -1.1748,-0.6717c-0.4887,0.1217 -0.7264,0.55 -0.8878,0.9918c0.408,-0.0541 0.8205,-0.1082 1.2286,-0.1623c-0.0673,-0.1172 -0.0762,-0.1082 -0.0897,-0.2479c0.009,0.0721 0.0045,-0.0181 0.0045,-0.0406c0.009,-0.1984 -0.0269,0.0811 0.0179,-0.1127c0.0852,-0.3427 -0.1121,-0.7484 -0.4708,-0.8341c-0.3452,-0.0721 -0.7309,0.1127 -0.825,0.4824z"/>
   <path id="svg_33" fill="#727272" d="m26.3671,48.2865c-0.1973,0.2615 -0.3767,0.5365 -0.5336,0.8251c-0.2645,0.4733 0.1838,1.2127 0.7578,0.9918c0.2062,-0.0766 0.408,-0.1578 0.6143,-0.2344c-0.2735,-0.1578 -0.5515,-0.3156 -0.8295,-0.4734c0.0358,0.1037 0.0538,0.1713 0.0493,0.275c-0.0045,0.3426 0.3139,0.7078 0.6726,0.6762c0.3363,-0.027 0.6232,-0.1082 0.9237,-0.2524c0.3273,-0.1578 0.4125,-0.6312 0.2421,-0.9242c-0.1973,-0.3381 -0.5919,-0.4013 -0.9192,-0.2435c-0.0673,0.0316 -0.1928,0.0631 -0.2466,0.0677c0.2242,0.2254 0.4484,0.4508 0.6726,0.6762c0.0044,-0.2164 -0.0269,-0.4328 -0.0987,-0.6357c-0.1121,-0.3201 -0.4663,-0.6086 -0.8295,-0.4733c-0.2063,0.0766 -0.408,0.1577 -0.6143,0.2344c0.2511,0.3291 0.5067,0.6627 0.7578,0.9918c0.1614,-0.2885 0.3363,-0.5635 0.5336,-0.825c0.2197,-0.293 0.0448,-0.7574 -0.2422,-0.9242c-0.3363,-0.1939 -0.6905,-0.0451 -0.9102,0.2479z"/>
   <path id="svg_34" fill="#727272" d="m22.5603,55.8786c-0.2556,0.5635 -0.4753,1.1406 -0.6547,1.7357c-0.1121,0.3697 0.1346,0.7123 0.4709,0.834c0.2869,0.1037 0.5963,0.0406 0.8474,-0.1217c0.1076,-0.0722 0.1794,-0.1443 0.2601,-0.239c0.3094,-0.3696 -0.1166,0.1082 -0.3677,-0.2028c-0.0583,-0.0992 -0.1166,-0.1984 -0.1749,-0.2976c-0.0358,-0.1262 -0.0089,0.1353 -0.0089,0.1308c0.0134,0.1037 0.0403,0.2119 0.0941,0.3065c0.1032,0.1758 0.2915,0.3201 0.4843,0.3742c0.3632,0.0992 0.8295,-0.0406 0.9865,-0.4102c0.1434,-0.3337 0.0986,-0.7259 -0.2422,-0.9242c-0.2825,-0.1669 -0.7757,-0.0947 -0.9192,0.2434c0.0135,-0.018 0.0269,-0.0361 0.0449,-0.0496c0.0986,-0.0586 0.1972,-0.1172 0.2959,-0.1758c0.1345,0.0406 0.269,0.0811 0.4035,0.1217c0.0583,0.0992 0.1166,0.1984 0.1749,0.2976c0.0359,0.1262 0.009,-0.1849 0,-0.2164c-0.0359,-0.1353 -0.0986,-0.257 -0.1883,-0.3562c-0.1659,-0.1758 -0.3811,-0.2795 -0.6233,-0.293c-0.2197,-0.0091 -0.4215,0.0541 -0.6008,0.1803c-0.0852,0.0586 -0.157,0.1262 -0.2242,0.2074c-0.278,0.3246 -0.0852,0.0496 0.121,0.1217c0.157,0.2795 0.3139,0.5545 0.4709,0.834c0.1434,-0.4823 0.3138,-0.9512 0.5201,-1.4111c0.148,-0.3336 0.0942,-0.7258 -0.2421,-0.9242c-0.296,-0.1758 -0.7802,-0.0991 -0.9282,0.2345z"/>
   <path id="svg_35" fill="#727272" d="m21.0716,63.8537c-0.1435,0.7755 -0.1435,1.5283 0.009,2.3038c0.0762,0.3832 0.4887,0.5274 0.8295,0.4733c0.1973,-0.0315 0.3811,-0.1442 0.5201,-0.293c0.0583,-0.0631 0.1121,-0.1397 0.1615,-0.2119c0.0269,-0.0406 0.0493,-0.0811 0.0717,-0.1262c0.0404,-0.0631 0.0269,-0.0586 -0.0493,0.0045c-0.1211,0 -0.2377,0 -0.3587,0c0.0314,0.009 0.0627,0.018 0.0941,0.027c-0.0986,-0.0586 -0.1973,-0.1172 -0.2959,-0.1758c-0.0493,-0.1037 -0.0538,-0.0992 -0.009,0.0135c0.0224,0.0541 0.0449,0.1082 0.0673,0.1623c0.0717,0.1353 0.1704,0.2435 0.2959,0.3246c0.3004,0.2029 0.574,0.1894 0.8968,0.0406c0.3318,-0.1488 0.4125,-0.6357 0.2421,-0.9242c-0.1973,-0.3426 -0.5874,-0.3922 -0.9192,-0.2434c-0.0224,0.009 -0.0493,0.0225 -0.0717,0.0315c0.1749,-0.0225 0.3453,-0.0451 0.5201,-0.0676c-0.0269,-0.009 -0.0538,-0.0135 -0.0807,-0.0225c0.0987,0.0586 0.1973,0.1172 0.296,0.1758c0.0269,0.0901 0.0269,0.0992 0.0044,0.0315c-0.0224,-0.0721 -0.0493,-0.1397 -0.0807,-0.2028c-0.0403,-0.0767 -0.0852,-0.1533 -0.1479,-0.2164c-0.1884,-0.2029 -0.4484,-0.2976 -0.722,-0.2705c-0.2376,0.0225 -0.4483,0.1397 -0.6143,0.311c-0.0807,0.0812 -0.1479,0.1759 -0.2062,0.275c-0.0135,0.0271 -0.0314,0.0541 -0.0449,0.0812c-0.0851,0.1262 -0.0627,0.1127 0.0718,-0.0361c0.2735,0.1578 0.5515,0.3156 0.8295,0.4734c-0.1031,-0.523 -0.1076,-1.0595 -0.009,-1.5824c0.0673,-0.3607 -0.0986,-0.7304 -0.4708,-0.8341c-0.3318,-0.0856 -0.7622,0.1173 -0.8295,0.4779z"/>
   <path id="svg_36" fill="#727272" d="m22.0311,73.6142c0.1884,0.3787 0.3722,0.7574 0.5605,1.1361c0.1659,0.3336 0.6188,0.4103 0.9192,0.2435c0.2422,-0.1353 0.4081,-0.3517 0.4843,-0.6222c0.0359,-0.1217 0.0583,-0.275 0.0449,-0.4012c-0.0135,-0.1443 0.0493,-0.1037 -0.027,-0.0361c-0.0986,0.0586 -0.1972,0.1172 -0.2959,0.1758c-0.009,0.0045 -0.0179,0.0045 -0.0269,0.0091c-0.1121,-0.0316 -0.2242,-0.0632 -0.3408,-0.0902c0.2332,0.1352 0.3453,0.3516 0.6861,0.3516c0.4035,0 0.4932,-0.2389 0.7353,-0.4778c-0.0986,0.0586 -0.1973,0.1172 -0.2959,0.1758c-0.13,-0.0812 -0.2601,-0.1623 -0.3901,-0.248c0.0538,0.3607 0.5067,0.5591 0.8295,0.4734c0.3856,-0.1082 0.5246,-0.4689 0.4708,-0.834c-0.0627,-0.4058 -0.4439,-0.7078 -0.8385,-0.7484c-0.4618,-0.0451 -0.7622,0.2074 -0.9819,0.5861c0.0807,-0.0812 0.1614,-0.1623 0.2421,-0.2435c-0.0224,0.018 -0.0493,0.0361 -0.0718,0.0541c0.1121,-0.0315 0.2242,-0.0631 0.3408,-0.0902c-0.0224,0 -0.0493,0 -0.0717,0c0.1121,0.0316 0.2242,0.0632 0.3408,0.0902c-0.0808,-0.0451 -0.2915,-0.275 -0.4709,-0.3246c-0.2555,-0.0721 -0.5246,-0.018 -0.7353,0.1398c-0.1883,0.1397 -0.3184,0.3471 -0.3856,0.568c-0.0449,0.1398 0.0044,0.4238 -0.0673,0.523c0.0807,-0.0812 0.1614,-0.1623 0.2421,-0.2435c-0.0269,0.0136 -0.0538,0.0316 -0.0852,0.0451c0.3049,0.0812 0.6143,0.1623 0.9192,0.2435c-0.1883,-0.3787 -0.3721,-0.7574 -0.5604,-1.1361c-0.3946,-0.7845 -1.556,-0.0992 -1.1704,0.6807z"/>
   <path id="svg_37" fill="#727272" d="m26.1833,83.6587c-0.0224,0.5816 0.5784,0.9107 1.0851,0.7529c0.2421,-0.0766 0.417,-0.2479 0.5336,-0.4643c0.0179,-0.0361 0.0359,-0.0767 0.0538,-0.1127c0.0986,-0.1578 0,-0.1127 -0.3049,0.1442c-0.139,-0.018 -0.0762,-0.018 0.0224,0.0361c0.3184,0.1758 0.7354,0.0766 0.9192,-0.2434c0.1794,-0.3111 0.0762,-0.7484 -0.2421,-0.9243c-0.3318,-0.1848 -0.7085,-0.293 -1.0762,-0.1397c-0.1883,0.0811 -0.3452,0.2164 -0.4528,0.3967c-0.0314,0.0496 -0.0628,0.1082 -0.0808,0.1668c-0.0089,0.0181 -0.0179,0.0361 -0.0269,0.0541c0.2332,-0.2615 0.4753,-0.284 0.7309,-0.0676c0.0583,0.0992 0.1166,0.1984 0.1749,0.2976c0.0045,0.036 0.009,0.0721 0.0135,0.1082c0.0134,-0.3562 -0.3184,-0.6943 -0.6726,-0.6763c-0.3812,0.0135 -0.6637,0.293 -0.6771,0.6717z"/>
   <path id="svg_38" fill="#727272" d="m51.0377,50.1575c0.0807,0.4058 0.2197,0.7845 0.3946,1.1586c0.1659,0.3472 0.6188,0.3923 0.9192,0.2435c0.1704,-0.0857 0.3094,-0.2389 0.3991,-0.4058c0.0269,-0.0495 0.0448,-0.1036 0.0717,-0.1577c0.1435,-0.3111 -0.0044,0.1577 -0.3497,0.1217c-0.1121,-0.0316 -0.2242,-0.0631 -0.3408,-0.0902c-0.0762,-0.0361 0.1121,0.0857 0.1121,0.0857c0.0718,0.0541 0.1211,0.0856 0.2063,0.1217c0.1748,0.0766 0.3542,0.0902 0.5425,0.0631c0.4036,-0.0676 0.6412,-0.3291 0.7937,-0.6943c0.139,-0.3381 -0.1525,-0.7438 -0.4708,-0.834c-0.3856,-0.1082 -0.6861,0.1352 -0.8296,0.4734c0.157,-0.2931 0.3543,-0.3562 0.5874,-0.1894c-0.0179,-0.018 -0.0358,-0.0361 -0.0582,-0.0496c-0.0852,-0.0856 -0.2467,-0.1758 -0.3632,-0.2074c-0.2153,-0.0586 -0.4484,-0.0225 -0.6368,0.0902c-0.1569,0.0947 -0.269,0.2435 -0.3452,0.4058c-0.018,0.0405 -0.0404,0.0856 -0.0583,0.1307c-0.0493,0.1443 -0.0224,0.009 0.0583,-0.0271c0.3049,0.0812 0.6143,0.1623 0.9192,0.2435c-0.1256,-0.266 -0.2018,-0.5455 -0.2601,-0.834c-0.0673,-0.3607 -0.4977,-0.5636 -0.8295,-0.4734c-0.3632,0.0947 -0.5291,0.4643 -0.4619,0.825z"/>
   <path id="svg_39" fill="#727272" d="m52.5982,57.8982c0.0852,0.4283 0.1748,0.8566 0.26,1.2849c0.1435,0.7078 1.0896,0.5771 1.2959,0c0.0673,-0.1939 0.1838,-0.3201 0.3318,-0.4553c-0.3542,-0.0451 -0.704,-0.0902 -1.0582,-0.1353c0.1166,0.2705 0.2376,0.5455 0.3542,0.816c0.1345,0.3111 0.6547,0.4463 0.9192,0.2435c0.1615,-0.1218 0.2915,-0.23 0.3946,-0.4103c0.0359,-0.0631 0.0762,-0.1398 0.0987,-0.2119c0.0089,-0.0315 0.0224,-0.0631 0.0403,-0.0901c0.1076,-0.1984 -0.0986,-0.2615 -0.6232,-0.1894c-0.0494,0.3607 0.3452,0.6762 0.6725,0.6762c0.4036,0 0.6233,-0.311 0.6726,-0.6762c0.0763,-0.5635 -0.4484,-1.073 -0.9909,-1.073c-0.2735,0 -0.5202,0.1217 -0.704,0.3156c-0.0852,0.0902 -0.1435,0.1894 -0.2018,0.2976c-0.0358,0.0721 -0.1748,0.2975 -0.0358,0.1938c0.3049,0.0812 0.6143,0.1623 0.9192,0.2435c-0.1166,-0.2705 -0.2377,-0.5455 -0.3543,-0.816c-0.1838,-0.4238 -0.7712,-0.3968 -1.0582,-0.1353c-0.3228,0.293 -0.5291,0.6447 -0.677,1.0504c0.4304,0 0.8654,0 1.2958,0c-0.0852,-0.4282 -0.1749,-0.8565 -0.2601,-1.2848c-0.1659,-0.8566 -1.4662,-0.4959 -1.2913,0.3561z"/>
   <path id="svg_40" fill="#727272" d="m53.7774,68.2403c-0.0403,0.3381 0,0.6853 0.0897,1.0099c0.1121,0.3922 0.6233,0.6582 0.9865,0.4057c0.2376,-0.1668 0.3811,-0.3471 0.4843,-0.6176c0.0269,-0.0676 0.0493,-0.1398 0.0717,-0.2119c0.0404,-0.1443 0,0.0496 -0.1166,0.0676c-0.121,0 -0.2376,0 -0.3587,0c-0.1121,-0.0451 -0.1838,-0.1127 -0.2018,-0.2119c-0.0134,-0.045 -0.0089,-0.0315 0.018,0.0406c0.0134,0.0406 0.0269,0.0857 0.0403,0.1262c0.0762,0.2074 0.1839,0.3742 0.3542,0.514c0.3677,0.2975 0.7847,0.248 1.1435,-0.0316c0.2869,-0.2254 0.2331,-0.7213 0,-0.9557c-0.2825,-0.2841 -0.6637,-0.2254 -0.9506,0c-0.0135,0.0135 -0.0314,0.0225 -0.0449,0.036c0.0987,-0.0586 0.1973,-0.1172 0.296,-0.1758c-0.018,0.0045 -0.0359,0.009 -0.0538,0.0135c0.121,0 0.2376,0 0.3587,0c0.0807,0.0136 0.1973,0.2615 0.1479,0.1127c-0.0358,-0.1172 -0.0807,-0.2389 -0.1435,-0.3426c-0.1883,-0.3065 -0.5201,-0.4824 -0.8743,-0.4463c-0.3139,0.0316 -0.5695,0.2299 -0.7399,0.4914c-0.0717,0.1127 -0.121,0.2389 -0.1614,0.3652c-0.0134,0.0405 -0.0403,0.0992 -0.0448,0.1397c-0.0045,0.0586 -0.0135,-0.0135 0.0986,-0.0901c0.3273,0.1352 0.6592,0.2705 0.9865,0.4057c-0.0628,-0.2209 -0.0718,-0.4193 -0.0449,-0.6492c0.0404,-0.3652 -0.3407,-0.6762 -0.6725,-0.6762c-0.3902,0.0045 -0.6233,0.3156 -0.6682,0.6807z"/>
   <path id="svg_41" fill="#727272" d="m53.4053,76.202c-0.0359,0.4418 0,0.8746 0.0672,1.3119c0.0807,0.5095 0.8027,0.6402 1.1255,0.2976c0.1166,-0.1217 0.2376,-0.2435 0.3632,-0.3562c0.1121,-0.0992 0.2287,-0.1983 0.3184,-0.2615c-0.3274,-0.1352 -0.6592,-0.2705 -0.9865,-0.4057c0.0403,0.1172 0.0403,-0.018 0.0269,0.1082c0.009,-0.0947 -0.0538,0.0856 -0.009,0.009c-0.1748,0.3201 -0.0762,0.7394 0.2422,0.9242c0.3094,0.1803 0.7443,0.0812 0.9192,-0.2434c0.1928,-0.3562 0.2556,-0.771 0.121,-1.1587c-0.13,-0.3697 -0.6143,-0.6807 -0.9864,-0.4057c-0.3408,0.2524 -0.6592,0.5229 -0.9506,0.8295c0.3766,0.0992 0.7488,0.1984 1.1254,0.2976c-0.0448,-0.2931 -0.0448,-0.6357 -0.0224,-0.9558c0.0269,-0.3517 -0.3273,-0.6898 -0.6726,-0.6762c-0.3946,0.027 -0.6501,0.3065 -0.6815,0.6852z"/>
   <path id="svg_42" fill="#727272" d="m52.9748,85.0338c-0.2421,0.4103 -0.4259,0.8611 -0.5291,1.3299c-0.0807,0.3562 0.1077,0.7304 0.4708,0.8341c0.3767,0.1037 0.6995,-0.1262 0.8296,-0.4734c0.0403,-0.1127 0.1748,-0.3561 0.2466,-0.4508c-0.3184,0 -0.6322,0 -0.9506,0c-0.0807,-0.0992 -0.1031,-0.2074 -0.0717,-0.3336c-0.0583,0.3606 0.0941,0.7258 0.4708,0.834c0.3228,0.0902 0.7667,-0.1082 0.8295,-0.4734c0.0628,-0.3742 -0.0045,-0.7033 -0.2735,-0.9828c-0.2332,-0.2434 -0.7264,-0.284 -0.9506,0c-0.2601,0.3246 -0.4484,0.6537 -0.5964,1.0459c0.4305,0.1218 0.8654,0.239 1.2959,0.3607c0.0852,-0.3787 0.1973,-0.6762 0.3946,-1.0053c0.1838,-0.3156 0.0717,-0.7439 -0.2422,-0.9242c-0.3183,-0.1894 -0.7353,-0.0767 -0.9237,0.2389z"/>
   <path id="svg_43" fill="#727272" d="m57.8982,87.7343c-0.278,0.3652 -0.4081,0.8161 -0.4305,1.2714c-0.0134,0.266 0.1794,0.523 0.4125,0.6176c0.2646,0.1082 0.5202,0.0451 0.7354,-0.1397c0.3318,-0.2841 0.6636,-0.5726 0.9954,-0.8566c-0.3542,-0.0451 -0.704,-0.0902 -1.0582,-0.1353c-0.0269,-0.0405 -0.0134,-0.0991 -0.0089,-0.1442c0.0044,-0.0316 0.0762,-0.1398 0.0044,-0.0271c-0.1928,0.3111 -0.0672,0.7439 0.2422,0.9242c0.3228,0.1894 0.7264,0.0677 0.9192,-0.2434c0.2287,-0.3652 0.2242,-0.8295 0.0045,-1.1992c-0.2377,-0.3968 -0.7264,-0.4193 -1.0582,-0.1353c-0.3319,0.284 -0.6637,0.5726 -0.9955,0.8566c0.3811,0.1578 0.7668,0.3201 1.1479,0.4779c0.009,-0.2029 -0.0359,0.0901 0.009,-0.1037c0.0179,-0.0676 0.0358,-0.1398 0.0583,-0.2074c-0.0359,0.0947 0.0538,-0.0947 0.0538,-0.0992c0.0358,-0.0631 0.0762,-0.1217 0.121,-0.1758c0.2197,-0.293 0.0449,-0.7574 -0.2421,-0.9242c-0.3363,-0.2029 -0.686,-0.0496 -0.9102,0.2434z"/>
   <path id="svg_44" fill="#727272" d="m60.3823,78.88c-0.0942,0.5139 -0.148,1.0324 -0.1525,1.5598c-0.009,0.6627 0.9282,0.9332 1.2555,0.3427c0.2018,-0.3697 0.4394,-0.6898 0.7354,-0.9874c-0.2735,0.0361 -0.5426,0.0722 -0.8161,0.1037c-0.0135,-0.009 -0.0314,-0.0225 -0.0448,-0.0315c-0.0583,-0.0992 -0.1166,-0.1984 -0.1749,-0.2976c-0.0135,-0.0405 0.0314,-0.1668 -0.0135,-0.0225c-0.0314,0.0901 -0.0493,0.2344 -0.0538,0.3201c-0.0089,0.2164 0.0538,0.4283 0.1794,0.6041c0.1435,0.1938 0.3811,0.3246 0.6277,0.3246c0.1346,0 0.2915,-0.0406 0.4081,-0.1037c0.0224,-0.0135 0.0403,-0.0225 0.0627,-0.0361c0.1077,-0.0676 0.0763,-0.0721 -0.0941,-0.0135c-0.1121,-0.0316 -0.2242,-0.0631 -0.3408,-0.0902c-0.1794,-0.0901 -0.1928,-0.1938 -0.1749,-0.3246c-0.0493,0.3607 0.0897,0.7259 0.4708,0.8341c0.3139,0.0856 0.7758,-0.1082 0.8296,-0.4734c0.0538,-0.3877 0.0358,-0.7799 -0.2601,-1.073c-0.148,-0.1442 -0.3722,-0.2299 -0.5784,-0.2254c-0.1345,0.0045 -0.2915,0.0496 -0.4081,0.1127c-0.0314,0.0181 -0.1793,0.0812 -0.0941,0.0631c0.121,0 0.2376,0 0.3587,0c-0.0179,-0.0045 -0.0404,-0.0135 -0.0583,-0.018c0.0986,0.0586 0.1973,0.1172 0.2959,0.1758c0.0449,0.3742 0.0852,0.4689 0.1256,0.284c0.0179,-0.045 0.0269,-0.0901 0.0359,-0.1397c0.0224,-0.1037 0.0313,-0.2119 0.0224,-0.3201c-0.018,-0.2975 -0.1704,-0.5816 -0.4439,-0.7123c-0.2691,-0.1353 -0.5919,-0.1172 -0.8161,0.1037c-0.3722,0.3742 -0.6905,0.7979 -0.9461,1.2578c0.417,0.1127 0.834,0.2254 1.2555,0.3426c0.0045,-0.4012 0.0359,-0.8025 0.1076,-1.1992c0.0628,-0.3606 -0.0986,-0.7303 -0.4708,-0.834c-0.3318,-0.0902 -0.7668,0.1127 -0.8295,0.4734z"/>
   <path id="svg_45" fill="#727272" d="m61.288,69.5703c-0.1928,0.4643 -0.1973,0.9918 -0.0493,1.4697c0.2063,0.6582 1.0761,0.6267 1.2959,0c0.1121,-0.3246 0.3138,-0.5816 0.5694,-0.807c-0.3811,-0.1578 -0.7667,-0.3201 -1.1479,-0.4779c0.0135,0.23 0.0314,0.4599 0.0449,0.6853c0.0269,0.3967 0.2869,0.6312 0.6726,0.6762c0.2152,0.0271 0.4125,-0.045 0.5918,-0.1623c0.0763,-0.0496 0.1435,-0.1082 0.2018,-0.1758c0.0224,-0.0315 0.0493,-0.0586 0.0718,-0.0856c0.0807,-0.0857 0.0134,-0.0677 -0.2063,0.0541c-0.1121,-0.0316 -0.2242,-0.0632 -0.3408,-0.0902c-0.0359,-0.0406 -0.0762,-0.0812 -0.1121,-0.1217c-0.0314,-0.1127 -0.0628,-0.2254 -0.0897,-0.3427c0,0.0181 0,0.0361 0.0045,0.0541c0.0314,-0.1127 0.0628,-0.2254 0.0897,-0.3426c-0.009,0.0135 -0.0179,0.0316 -0.0269,0.0451c-0.4574,0.7439 0.7085,1.4246 1.1613,0.6807c0.2691,-0.4373 0.0449,-1.0053 -0.4259,-1.1766c-0.2467,-0.0902 -0.4978,-0.0722 -0.7264,0.0541c-0.0942,0.0496 -0.1749,0.1217 -0.2511,0.1983c-0.018,0.0181 -0.0314,0.0406 -0.0494,0.0586c-0.0896,0.0902 -0.0538,0.0902 0.1077,0c0.2242,0.2255 0.4484,0.4509 0.6725,0.6763c-0.0134,-0.2299 -0.0313,-0.4599 -0.0448,-0.6853c-0.0403,-0.5996 -0.6995,-0.8746 -1.1479,-0.4779c-0.4304,0.3833 -0.7264,0.8611 -0.9147,1.4021c0.4305,0 0.8654,0 1.2959,0c-0.0852,-0.275 -0.0583,-0.4869 0.0493,-0.7483c0.139,-0.3382 -0.1525,-0.7439 -0.4708,-0.8341c-0.3857,-0.1082 -0.6861,0.1353 -0.8251,0.4734z"/>
   <path id="svg_46" fill="#727272" d="m60.7276,57.7179c0.0358,0.3787 0.0762,0.7619 0.1121,1.1406c0.0313,0.3336 0.2286,0.6221 0.5829,0.6627c0.3228,0.0406 0.6546,-0.1533 0.7398,-0.4824c0.0718,-0.2885 0.1704,-0.55 0.3139,-0.807c-0.3856,0 -0.7757,0 -1.1613,0c0.0672,0.1263 0.1345,0.2525 0.1973,0.3742c0.2466,0.4644 0.9012,0.4103 1.1613,0c0.0224,-0.0361 0.0538,-0.0676 0.0538,-0.0811c0.0717,-0.0632 0.0224,-0.0586 -0.139,0.0135c-0.0717,0.0406 -0.1435,0.0496 -0.2152,0.0361c-0.0807,-0.0812 -0.1614,-0.1623 -0.2422,-0.2435c-0.0044,-0.018 -0.0089,-0.0361 -0.0134,-0.0541c0.2601,0.825 1.5604,0.4734 1.2959,-0.3607c-0.1346,-0.4237 -0.5023,-0.6897 -0.9506,-0.6762c-0.435,0.0135 -0.7399,0.3381 -0.9551,0.6807c0.3856,0 0.7757,0 1.1613,0c-0.0672,-0.1262 -0.1345,-0.2524 -0.1973,-0.3741c-0.2331,-0.4419 -0.9237,-0.4373 -1.1613,0c-0.1928,0.3561 -0.3453,0.7348 -0.4484,1.1315c0.4394,0.0587 0.8788,0.1218 1.3227,0.1804c-0.0358,-0.3787 -0.0762,-0.7619 -0.1121,-1.1406c-0.0358,-0.3652 -0.2824,-0.6763 -0.6725,-0.6763c-0.3363,0 -0.7085,0.3111 -0.6726,0.6763z"/>
   <path id="svg_47" fill="#727272" d="m57.3959,50.1575c0.1704,0.4327 0.3812,0.7934 0.6771,1.1541c0.3408,0.4147 0.982,0.1442 1.1255,-0.2976c0.1031,-0.3246 0.148,-0.6762 0.1166,-1.0143c-0.417,0.1127 -0.834,0.2254 -1.2555,0.3426c0.13,0.2525 0.3139,0.4824 0.5336,0.6627c0.2825,0.2299 0.677,0.275 0.9506,0c0.2376,-0.2389 0.2824,-0.7258 0,-0.9557c-0.0808,-0.0632 -0.157,-0.1353 -0.2198,-0.2119c-0.0672,-0.0857 0.0404,0.0676 -0.0179,-0.0271c-0.0314,-0.0496 -0.0583,-0.0992 -0.0852,-0.1488c-0.139,-0.2705 -0.4843,-0.3922 -0.7623,-0.3155c-0.2645,0.0721 -0.5201,0.3606 -0.4932,0.6537c0.0269,0.284 0.0179,0.3967 -0.0672,0.6537c0.3766,-0.0992 0.7488,-0.1984 1.1254,-0.2976c-0.0583,-0.0676 -0.1166,-0.1533 -0.1838,-0.2705c-0.0314,-0.0541 -0.0628,-0.1127 -0.0942,-0.1668c-0.009,-0.0135 -0.0807,-0.1848 -0.0583,-0.1172c-0.1345,-0.3381 -0.4484,-0.5771 -0.8295,-0.4734c-0.3139,0.0857 -0.5964,0.4869 -0.4619,0.8296z"/>
   <path id="svg_48" fill="#727272" d="m64.1891,49.6345c0.0538,0.284 0.1615,0.559 0.3094,0.8115c0.1525,0.257 0.4708,0.3922 0.7578,0.3111c0.3049,-0.0857 0.4663,-0.3517 0.4932,-0.6537c0.0314,-0.3156 0.0628,-0.6357 0.0942,-0.9513c-0.3363,0.1939 -0.6726,0.3877 -1.0134,0.5861c0.2063,0.1533 0.4126,0.3111 0.6188,0.4643c0.2915,0.2164 0.7533,0.0496 0.9192,-0.2434c0.2018,-0.3426 0.0494,-0.7078 -0.2421,-0.9242c-0.2063,-0.1533 -0.4125,-0.3111 -0.6188,-0.4644c-0.1883,-0.1397 -0.4887,-0.1127 -0.6771,0c-0.2197,0.1308 -0.3094,0.3382 -0.3318,0.5861c-0.0314,0.3156 -0.0627,0.6357 -0.0941,0.9513c0.417,-0.1127 0.834,-0.2255 1.2555,-0.3427c-0.1076,-0.1803 -0.1345,-0.266 -0.1749,-0.4869c-0.0673,-0.3606 -0.4977,-0.5635 -0.8295,-0.4733c-0.3677,0.0991 -0.5291,0.4688 -0.4664,0.8295z"/>
   <path id="svg_49" fill="#727272" d="m67.1754,57.7494c0.0628,0.3742 0.1525,0.7349 0.2736,1.0955c0.139,0.4283 0.5874,0.6087 0.9864,0.4058c0.2466,-0.1262 0.4036,-0.3607 0.4664,-0.6267c0.0313,-0.1217 0.0358,-0.2524 0.0448,-0.3832c0,-0.0451 0.0045,-0.0901 0.009,-0.1352c-0.009,0.1893 -0.1346,0.3111 -0.3812,0.3742c-0.1121,-0.0316 -0.2242,-0.0631 -0.3407,-0.0902c0.5291,0.2615 0.9416,0.4373 1.5469,0.3021c0.843,-0.1894 0.4888,-1.4968 -0.3587,-1.3029c-0.2107,0.0496 -0.3318,-0.0767 -0.5112,-0.1668c-0.3138,-0.1533 -0.6726,-0.1308 -0.9461,0.0856c-0.2062,0.1623 -0.3004,0.3877 -0.3363,0.6447c-0.0134,0.0992 -0.0179,0.1939 -0.0269,0.293c-0.0089,0.0857 -0.0045,0.0902 0.0045,0.0226c-0.0448,0.1533 0.0045,0.0901 0.1525,-0.1804c0.3273,0.1353 0.6591,0.2705 0.9864,0.4058c-0.1166,-0.3607 -0.2062,-0.7213 -0.2735,-1.0955c-0.0628,-0.3607 -0.5022,-0.5636 -0.8295,-0.4734c-0.3767,0.0947 -0.5291,0.4644 -0.4664,0.825z"/>
   <path id="svg_50" fill="#727272" d="m68.7404,67.5325c-0.0449,0.3427 -0.0942,0.6853 -0.139,1.0279c-0.0404,0.3021 0.0269,0.5996 0.3094,0.7619c0.2331,0.1398 0.6367,0.1263 0.816,-0.1037c0.0987,-0.1307 0.1973,-0.2389 0.3543,-0.293c-0.2825,-0.2164 -0.5695,-0.4328 -0.852,-0.6537c0.009,0.2705 0.0135,0.541 0.0224,0.8115c0.0135,0.4508 0.417,0.7574 0.852,0.6537c0.2152,-0.0496 0.3946,-0.1578 0.565,-0.293l0.1659,-0.1308c-0.0135,-0.018 -0.2287,-0.0045 -0.278,-0.0586c-0.0583,-0.0992 -0.1166,-0.1984 -0.1749,-0.2975c0.0089,0.0225 0.0134,0.045 0.0224,0.0676c0.2825,0.816 1.5828,0.4643 1.2959,-0.3607c-0.157,-0.4463 -0.5157,-0.6988 -0.991,-0.6852c-0.1928,0.0045 -0.3946,0.0676 -0.5605,0.1668c-0.1345,0.0811 -0.26,0.2479 -0.4125,0.284c0.2825,0.2164 0.5695,0.4328 0.8519,0.6537c-0.0089,-0.2705 -0.0134,-0.541 -0.0224,-0.8115c-0.0089,-0.4148 -0.4259,-0.798 -0.8519,-0.6537c-0.3722,0.1307 -0.704,0.3291 -0.9461,0.6447c0.3766,0.2209 0.7488,0.4373 1.1254,0.6582c0.0449,-0.3426 0.0942,-0.6853 0.139,-1.0279c0.0494,-0.3607 -0.0852,-0.7258 -0.4708,-0.834c-0.3049,-0.0857 -0.7712,0.1082 -0.8205,0.4733z"/>
   <path id="svg_51" fill="#727272" d="m66.8078,78.7311c-0.0942,0.3833 -0.1884,0.7665 -0.278,1.1497c-0.0852,0.3516 0.1076,0.7393 0.4708,0.834c0.3228,0.0857 0.6322,0.0225 0.8968,-0.1893c0.2107,-0.1714 0.2869,-0.4374 0.4797,-0.6042c-0.0986,0.0586 -0.1973,0.1173 -0.2959,0.1759c0.0314,-0.0136 0.0628,-0.0271 0.0986,-0.0406c-0.121,0 -0.2376,0 -0.3587,0c0.0314,0.0045 0.0628,0.0135 0.0987,0.018c-0.1345,-0.1037 -0.2691,-0.2074 -0.4036,-0.3111c-0.009,-0.0541 -0.0045,-0.0405 0.009,0.0496c0.0314,0.0767 0.0628,0.1533 0.0986,0.23c0.0897,0.1487 0.2287,0.2524 0.3812,0.3201c0.1614,0.0721 0.3407,0.0811 0.5156,0.045c0.0583,-0.0045 0.1166,-0.0225 0.1704,-0.045c0.2646,-0.0857 0.2108,-0.1128 -0.1614,-0.0767c-0.0807,-0.0811 -0.1614,-0.1623 -0.2421,-0.2434c0.0089,0.0135 0.0224,0.0315 0.0313,0.045c-0.0313,-0.1127 -0.0627,-0.2254 -0.0896,-0.3426c0,0.018 0,0.0406 -0.0045,0.0586c-0.0404,0.8701 1.3048,0.8701 1.3452,0c0.0179,-0.3697 -0.2332,-0.6807 -0.5785,-0.7889c-0.1614,-0.0496 -0.3407,-0.0541 -0.5067,-0.0136c-0.0582,0.0136 -0.2869,0.0587 -0.2197,0.0677c0.1121,0.0315 0.2242,0.0631 0.3408,0.0901c-0.0224,-0.0135 -0.0403,-0.0315 -0.0628,-0.0451c0.0807,0.0812 0.1615,0.1623 0.2422,0.2435c-0.0314,-0.0631 -0.1032,-0.3021 -0.2153,-0.4193c-0.1793,-0.1803 -0.5066,-0.2615 -0.7488,-0.1938c-0.1973,0.0541 -0.3677,0.1713 -0.5022,0.3201c-0.0717,0.0811 -0.1345,0.1713 -0.1883,0.2659c-0.0179,0.0316 -0.0314,0.0632 -0.0493,0.0902c-0.1256,0.1713 -0.0314,0.1668 0.2825,-0.018c0.1569,0.2795 0.3138,0.5545 0.4708,0.834c0.0941,-0.3832 0.1883,-0.7664 0.278,-1.1496c0.1973,-0.8431 -1.0986,-1.2037 -1.3048,-0.3562z"/>
   <path id="svg_52" fill="#727272" d="m65.3819,86.8642c0.0986,0.0766 0.1973,0.1532 0.2959,0.2299c0.287,0.2254 0.7533,0.0451 0.9192,-0.2435c0.2018,-0.3471 0.0494,-0.7033 -0.2421,-0.9242c-0.0986,-0.0766 -0.1973,-0.1533 -0.2959,-0.2299c-0.287,-0.2254 -0.7533,-0.0451 -0.9192,0.2435c-0.2018,0.3471 -0.0449,0.6987 0.2421,0.9242z"/>
  </g>
  <g id="svg_53" clip-path="url(#clip1_10_475)">
   <path id="svg_54" fill="#46A358" d="m35.2992,44.7375c0.5592,-4.632 -2.6739,-8.0904 -6.1189,-10.7576c-2.0066,-1.5559 -3.9681,-2.8539 -5.2757,-5.081c-0.6674,-1.1424 -1.3077,-2.4316 -1.682,-3.6985c-0.7304,-2.4671 0.5321,-6.3434 3.657,-3.4984c1.7991,1.6403 2.214,3.7563 3.5893,5.5788c0.7755,1.0313 1.966,1.5826 3.206,0.9247c3.7291,-1.9738 0.8432,-8.8195 0.009,-11.5401c-1.0101,-3.2939 -1.5421,-6.4634 0.1578,-9.63293c0.5592,-1.0402 1.1859,-2.11152 1.9029,-3.04948c0.4644,-0.60456 1.0551,-1.25802 1.718,-1.67588c1.3708,-0.87127 2.1959,-0.87127 3.711,-0.40896c1.6143,0.49343 1.6278,0.57789 1.957,2.10707c0.1533,0.7068 0.2164,1.48473 0.2525,2.21376c0.0767,1.54252 -0.0496,3.09838 -0.3697,4.61422c-0.5998,2.8761 -2.3268,5.4188 -2.7055,8.3394c-0.2796,2.1471 -0.0857,8.9706 3.5036,8.3305c4.207,-0.7513 3.9049,-7.4103 8.0984,-8.2994c3.4901,-0.7424 5.1946,3.0406 3.7156,5.6367c-0.8026,1.4136 -2.1373,2.5071 -3.4225,3.4717c-2.2906,1.7204 -5.0908,2.6183 -7.3409,4.3564c-4.0718,3.1562 -2.719,8.1172 -1.0461,12.1846c0.3247,0.7868 1.6323,0.4401 1.3031,-0.3556c-1.1272,-2.7428 -2.5431,-6.099 -1.019,-8.9795c1.4113,-2.6672 5.1359,-3.6007 7.5393,-5.1744c3.2466,-2.1248 7.9046,-6.1256 5.154,-10.3353c-2.2997,-3.5251 -6.7548,-2.3471 -8.856,0.6046c-0.6358,0.8935 -1.1273,1.8759 -1.691,2.8139c-0.257,0.4267 -0.514,0.8579 -0.8161,1.258c-0.2165,0.2578 -0.4329,0.5112 -0.6493,0.769c-1.709,0.3734 -2.5928,-0.0756 -2.6514,-1.3558c-1.7135,-3.5918 0.3607,-7.2725 1.5241,-10.5843c0.8657,-2.4627 1.2355,-5.0854 1.0506,-7.6859c-0.1263,-1.80035 -0.3156,-4.23638 -2.0336,-5.312143c-1.5106,-0.946849 -3.8328,-0.404522 -5.3163,0.333398c-2.2095,1.102435 -3.5623,3.440665 -4.6806,5.521065c-2.8723,5.34328 0.0271,10.05088 1.0958,15.43408c0.1398,0.7157 0.496,2.2849 0.257,3.0806c-0.7305,0.6579 -1.461,1.3114 -2.196,1.9693c-0.4193,-0.529 -0.735,-1.1069 -0.9559,-1.7426c-0.4239,-0.929 -0.8703,-1.7959 -1.488,-2.6227c-0.974,-1.3069 -2.8138,-3.454 -4.6941,-3.3473c-1.8262,0.1067 -2.8994,2.0093 -3.0933,3.5962c-0.2886,2.3471 0.9875,4.8499 2.1419,6.8414c3.2015,5.5166 12.1251,7.5481 11.2053,15.1673c-0.0992,0.8402 1.2535,0.8357 1.3527,-0.0089z"/>
   <path id="svg_55" fill="#46A358" d="m46.9869,22.5733c0.974,-4.8676 -0.8657,-9.3174 -1.249,-14.12274c-0.23,-2.87167 1.0101,-7.463667 4.9511,-6.15675c2.9354,0.97352 4.0492,4.42308 3.8508,7.18361c-0.1443,2.01818 -1.1273,7.93928 2.8137,7.38808c3.3819,-0.4712 5.1269,-6.0278 6.7683,-8.38383c1.4068,-2.01816 4.5136,-4.9654 7.2462,-4.14302c4.3288,1.30247 1.5557,6.42345 -0.4374,8.43715c-3.3593,3.3918 -6.9396,6.3924 -9.9021,10.1709c-1.718,2.1915 -3.206,5.7922 0.6042,6.7746c1.4655,0.3779 2.8769,-0.1244 4.198,-0.7201c1.0642,-0.4801 2.0788,-1.0535 3.2106,-1.3692c2.0652,-0.5779 4.4595,-0.1244 3.0933,2.4049c-3.197,5.9256 -10.5154,1.5559 -15.2365,4.0408c-4.0042,2.1115 -4.9376,6.7791 -4.5588,10.8732c0.0767,0.8491 1.4339,0.858 1.3528,0c-0.2661,-2.8538 -0.0361,-5.9389 1.966,-8.2015c2.5882,-2.9251 6.0422,-1.8582 9.4692,-1.9249c3.4991,-0.0666 8.0038,-1.7381 8.7298,-5.5922c0.7936,-4.223 -4.0853,-3.4051 -6.5879,-2.3871c-1.1048,0.449 -2.1374,1.1469 -3.2917,1.4759c-0.9154,0.2622 -2.3628,0.4045 -3.0843,-0.4446c-0.6989,-0.8268 -0.1353,-2.2182 0.2976,-2.9205c1.5827,-2.5783 4.0087,-4.9299 6.164,-7.0503c2.9716,-2.925 8.0399,-6.0278 7.6025,-10.79763c-0.3337,-3.64959 -3.7516,-4.98762 -6.9035,-3.61847c-1.8939,0.82238 -3.4586,2.1293 -4.6941,3.76072c-1.6143,2.1293 -2.4755,5.05428 -4.4009,6.93028c-0.6944,0.6756 -1.3753,2.1115 -2.9265,0.7023c-0.6899,-0.6268 -0.4825,-2.2982 -0.4103,-3.1562c0.0947,-1.1246 0.3382,-2.22261 0.3021,-3.35616c-0.0586,-1.91592 -0.7034,-3.85852 -1.9615,-5.34325c-2.6604,-3.129496 -7.2282,-2.991692 -8.9958,0.93351c-1.0551,2.34712 -0.5907,5.03208 -0.1488,7.4681c0.6494,3.5963 1.6008,7.1258 0.8658,10.7888c-0.1668,0.8401 1.1363,1.2002 1.3031,0.3556z"/>
   <path id="svg_56" fill="#46A358" d="m46.6849,31.006c-0.6358,4.5831 -1.6774,9.0728 -3.1294,13.4737c-0.2705,0.8179 1.0371,1.1691 1.3032,0.3556c1.4519,-4.4008 2.4935,-8.8906 3.1293,-13.4737c0.1173,-0.8446 -1.1859,-1.2047 -1.3031,-0.3556z"/>
   <path id="svg_57" fill="#46A358" d="m30.5059,43.973c-0.1758,-3.5295 -2.6604,-5.9122 -5.5192,-7.7259c-1.8532,-1.178 -3.8824,-2.1604 -5.4741,-3.6941c-0.6854,-0.6579 -1.9615,-1.9337 -2.0291,-2.9561c-0.23,-3.4095 3.9951,-0.7557 4.933,0.0311c0.6583,0.5557 1.6188,-0.3867 0.9559,-0.9424c-1.4744,-1.2402 -4.1213,-2.8539 -6.1459,-1.9203c-1.6324,0.7512 -1.3618,2.6138 -0.735,3.9563c2.6378,5.7033 12.3145,6.3568 12.6617,13.2514c0.0406,0.8535 1.3978,0.858 1.3527,0z"/>
   <path id="svg_58" fill="#46A358" d="m60.8391,45.2931c1.6865,-2.5071 3.9095,-4.5564 6.633,-5.9344c2.4801,-1.2536 5.5553,-1.4714 7.7513,-3.2451c2.5206,-2.036 2.6514,-7.028 -1.5196,-6.8991c-0.8703,0.0267 -0.8703,1.3602 0,1.3336c1.6458,0.2222 2.3132,1.1202 2.0111,2.6894c-0.3382,0.9024 -0.9109,1.6136 -1.718,2.1293c-0.9875,0.689 -2.187,1.0046 -3.3233,1.3602c-1.4474,0.4535 -2.8588,0.9291 -4.198,1.6404c-2.7867,1.4847 -5.0638,3.6629 -6.8088,6.2545c-0.4825,0.7157 0.6899,1.3825 1.1723,0.6712z"/>
   <path id="svg_59" fill="#46A358" d="m64.5141,33.562c-5.7312,1.0669 -7.846,6.6902 -9.2032,11.6111c-0.23,0.8313 1.0777,1.1825 1.3031,0.3556c1.2355,-4.4764 3.0167,-9.7041 8.2608,-10.6776c0.8523,-0.1645 0.4915,-1.4491 -0.3607,-1.2891z"/>
   <path id="svg_60" fill="#46A358" d="m34.2937,13.2648c-0.6719,-2.6627 0.1668,-5.57882 2.3402,-7.36584c0.4374,-0.37785 0.9334,-0.66679 1.479,-0.86683c1.5016,0.31562 2.2005,1.10688 2.0968,2.37379c0.0271,0.73792 -0.1172,1.46695 -0.2931,2.1782c-0.3562,1.43588 -0.983,2.80058 -1.4474,4.20528c-1.195,3.6185 -2.913,9.5352 0.3156,12.6157c0.3111,0.2979 0.7936,-0.1733 0.478,-0.4712c-2.8318,-2.6983 -1.3798,-7.8859 -0.4104,-11.1177c0.8387,-2.8005 3.1159,-6.52122 1.5783,-9.46401c-1.1995,-2.29378 -3.9501,-0.43119 -5.118,0.91129c-1.727,1.98705 -2.3086,4.65872 -1.6729,7.17912c0.1083,0.4179 0.7576,0.2401 0.6539,-0.1778z"/>
   <path id="svg_61" fill="#46A358" d="m48.5877,24.0624c0.3878,-0.8491 1.1724,-2.0493 2.223,-2.1915c1.6008,-0.2179 2.426,1.7647 1.5692,3.0761c-0.8071,1.2358 -2.3447,2.0982 -3.6704,2.6272c-2.205,0.8757 -3.684,2.0848 -5.2848,3.8141c-0.2931,0.3156 0.1849,0.7912 0.478,0.4712c0.9695,-1.0536 1.9615,-2.1471 3.2241,-2.8762c1.0055,-0.5823 2.1734,-0.809 3.1834,-1.378c1.231,-0.6979 3.2241,-2.2049 3.3684,-3.7252c0.1172,-1.2269 -1.1949,-2.6494 -2.4214,-2.7249c-1.479,-0.0934 -2.7146,1.4002 -3.2512,2.5738c-0.1803,0.3823 0.4059,0.7246 0.5817,0.3334z"/>
   <path id="svg_62" fill="#46A358" d="m23.3003,24.8359c0.1488,-1.1691 0.5952,-1.6003 1.3347,-1.2847c0.2615,0.0045 0.478,0.0978 0.6584,0.2801c0.3562,0.2312 0.5907,0.5734 0.8026,0.9335c0.3788,0.6446 0.5546,1.3958 0.8342,2.0804c0.3562,0.8802 0.8252,1.5959 1.6323,2.1204c0.3652,0.2401 0.7034,-0.3378 0.3427,-0.5779c-1.984,-1.298 -1.4294,-4.6675 -3.9095,-5.4855c-1.488,-0.489 -2.985,0.7824 -2.2771,2.2671c0.1849,0.3912 0.7666,0.0534 0.5817,-0.3334z"/>
   <path id="svg_63" fill="#46A358" d="m47.5326,7.58379c-0.3517,-1.92037 1.6999,-3.44956 3.2691,-2.04929c0.8658,0.77349 1.1995,2.19598 1.204,3.30731c0.009,1.50699 -0.6899,2.85389 -0.3923,4.36529c0.0811,0.4223 0.735,0.2445 0.6538,-0.1778c-0.3743,-1.8982 0.6989,-3.71629 0.2164,-5.68556c-0.2885,-1.178 -0.8747,-2.48937 -2.1103,-2.9339c-2.2275,-0.79571 -3.8643,1.32915 -3.4946,3.34732c0.0812,0.4223 0.7305,0.24449 0.6539,-0.17337z"/>
   <path id="svg_64" fill="#46A358" d="m47.1944,11.98c1.1002,2.2805 1.6413,4.2809 1.5602,6.8102c-0.0136,0.4312 0.6628,0.4268 0.6763,0c0.0857,-2.6583 -0.5005,-4.7609 -1.6503,-7.1436c-0.1894,-0.3867 -0.7711,-0.0489 -0.5862,0.3334z"/>
   <path id="svg_65" fill="#46A358" d="m64.735,10.073c0.6538,-1.47135 1.8893,-2.40042 3.3188,-3.09833c0.4103,-0.21338 0.8341,-0.38674 1.276,-0.52455c1.9074,0.64013 2.3899,1.52474 1.4475,2.66274c-0.4509,0.69791 -1.1048,1.32474 -1.6684,1.93814c-2.1464,2.3338 -4.4641,4.4942 -6.9126,6.5124c-0.3336,0.2756 0.1443,0.7468 0.478,0.4712c2.214,-1.8226 4.3198,-3.7607 6.2858,-5.8411c1.1814,-1.2492 3.4495,-3.10287 2.9535,-5.07658c-0.9875,-3.91187 -6.9351,0.75125 -7.7648,2.62273c-0.1713,0.38675 0.4149,0.72455 0.5862,0.33335z"/>
   <path id="svg_66" fill="#46A358" d="m60.9158,19.9861c-2.1599,1.5647 -3.4721,3.8452 -3.7201,6.4724c-0.0406,0.4267 0.6358,0.4223 0.6764,0c0.2255,-2.3738 1.4339,-4.4854 3.3864,-5.899c0.3472,-0.2489 0.009,-0.8312 -0.3427,-0.5734z"/>
   <path id="svg_67" fill="#46A358" d="m65.195,31.1083c0.4419,-0.2623 0.8838,-0.5379 1.3482,-0.7646c0.3517,-0.1912 0.7215,-0.3379 1.1093,-0.4401c0.726,-0.2978 0.9695,0.2578 0.726,1.667c-0.478,0.9291 -3.0663,0.9646 -3.8689,0.9157c-2.0066,-0.1156 -3.8959,-0.6579 -5.8755,-0.0578c-0.4148,0.1245 -0.2389,0.7691 0.1804,0.6446c2.3763,-0.7246 4.6895,0.329 7.0884,0.0667c1.3032,-0.1467 3.1474,-0.7379 3.7967,-1.9826c0.3608,-0.6935 0.2751,-1.6092 -0.514,-1.9871c-1.2941,-0.6179 -3.3142,0.7513 -4.3333,1.3603c-0.3698,0.2267 -0.0316,0.8046 0.3427,0.5779z"/>
   <path id="svg_68" fill="#46A358" d="m55.1395,33.5886c-3.5171,2.8139 -4.7978,7.0814 -5.154,11.3844c-0.036,0.4268 0.6403,0.4268 0.6764,0c0.3427,-4.1385 1.5737,-8.2104 4.9556,-10.9132c0.3382,-0.2711 -0.1443,-0.7379 -0.478,-0.4712z"/>
   <path id="svg_69" fill="#46A358" d="m40.0022,34.7223c-1.0461,1.787 -1.0145,3.734 -0.7846,5.7344c0.1939,1.6804 0.4149,3.3296 1.5918,4.6365c0.2886,0.32 0.7665,-0.1512 0.4779,-0.4712c-1.1543,-1.2803 -1.2986,-3.0584 -1.4519,-4.6943c-0.1623,-1.7025 -0.1398,-3.3517 0.753,-4.872c0.2165,-0.369 -0.3652,-0.7024 -0.5862,-0.3334z"/>
   <path id="svg_70" fill="#46A358" d="m21.3433,30.3303c-1.9569,0.0267 -1.1814,2.0582 -0.1352,2.7872c1.3076,0.9113 2.7956,1.5203 4.1845,2.2894c1.6368,0.9068 2.2951,2.436 3.5532,3.7118c0.3021,0.3067 0.7801,-0.1645 0.478,-0.4712c-1.2491,-1.2669 -1.8533,-2.7828 -3.4631,-3.6896c-0.8116,-0.4579 -1.6639,-0.8446 -2.48,-1.2847c-0.4239,-0.2267 -0.8477,-0.4534 -1.2536,-0.7068c-0.1623,-0.0978 -0.3291,-0.2 -0.4915,-0.2978c-0.8071,-0.3023 -0.9334,-0.858 -0.3878,-1.667c0.4284,-0.0089 0.4284,-0.6757 -0.0045,-0.6713z"/>
   <path id="svg_71" fill="#46A358" d="m72.2383,33.402c0.0225,0.8891 -0.3923,1.3736 -1.2535,1.4581c-0.4149,0.1644 -0.8252,0.3245 -1.2401,0.4889c-0.6177,0.2445 -1.24,0.489 -1.8577,0.7335c-1.443,0.569 -2.8904,1.1425 -4.3334,1.7115c-0.4013,0.1555 -0.2254,0.8046 0.1804,0.6445c1.6504,-0.6534 3.3007,-1.3024 4.9511,-1.9559c1.222,-0.4845 2.7821,-0.8313 3.8688,-1.587c0.9425,-0.6579 0.9695,-2.0226 -0.3201,-2.1604c-0.4284,-0.0489 -0.4239,0.6224 0.0045,0.6668z"/>
   <path id="svg_72" fill="#46A358" d="m62.0025,38.7186c-1.8127,1.6892 -3.2421,3.6718 -4.2522,5.9211c-0.1758,0.3868 0.4058,0.7291 0.5862,0.3379c0.9875,-2.196 2.3718,-4.1342 4.1484,-5.7834c0.3112,-0.2978 -0.1668,-0.769 -0.4824,-0.4756z"/>
   <path id="svg_73" fill="#46A358" d="m30.5511,41.6347c0.5185,0.7557 0.8522,1.5691 1.01,2.4671c0.0722,0.4223 0.726,0.2445 0.6539,-0.1778c-0.1669,-0.9469 -0.5321,-1.8315 -1.0777,-2.6272c-0.2435,-0.3512 -0.8297,-0.0178 -0.5862,0.3379z"/>
  </g>
 </g>
</svg>