<svg width="19" height="14" viewBox="0 0 19 14" fill="none" xmlns="http://www.w3.org/2000/svg">
<path fill-rule="evenodd" clip-rule="evenodd" d="M15.1653 4.42996L15.168 4.43064C15.168 4.43063 15.1676 4.43052 15.1667 4.43031C15.1663 4.43022 15.1658 4.4301 15.1653 4.42996ZM4.32444 4.35687C6.91762 4.19576 11.7483 4.19576 14.3415 4.35687L14.3422 4.36441C14.4047 4.99717 14.4299 5.84144 14.4299 7.01917C14.4299 8.18239 14.4053 9.0269 14.3441 9.66499C11.6962 9.77027 6.97129 9.77029 4.32282 9.66503C4.261 9.03326 4.23602 8.19139 4.23602 7.01917C4.23602 5.84144 4.26123 4.99717 4.32369 4.36441L4.32444 4.35687ZM15.2422 9.61108C15.2422 9.6111 15.2405 9.6115 15.237 9.61217L15.2422 9.61108ZM3.49794 9.60769L3.50063 9.60837C3.49881 9.60794 3.49792 9.60771 3.49794 9.60769ZM0 7.01917C0 11.8412 0.388873 13.63 3.42208 13.8633C6.22196 14.0189 12.4439 14.0189 15.2438 13.8633C18.277 13.7078 18.6659 11.8412 18.6659 7.01917C18.6659 2.19715 18.277 0.408332 15.2438 0.175008C12.4439 -0.0583156 6.22196 -0.0583156 3.42208 0.175008C0.388873 0.408332 0 2.19715 0 7.01917ZM3.49794 4.43064C3.49792 4.43063 3.49884 4.43038 3.50073 4.42994L3.49794 4.43064ZM9.78228 8.73888C8.50388 9.37808 6.99973 8.44846 6.99973 7.01917C6.99973 5.58988 8.50388 4.66026 9.78228 5.29946C11.1994 6.00802 11.1994 8.03032 9.78228 8.73888Z" fill="#46A358" fill-opacity="0.6"/>
</svg>
